<?xml version="1.0" encoding="UTF-8"?>
<!DOCTYPE svg PUBLIC "-//W3C//DTD SVG 1.1//EN" "http://www.w3.org/Graphics/SVG/1.1/DTD/svg11.dtd">
<svg xmlns="http://www.w3.org/2000/svg" version="1.1" width="497px" height="502px" style="shape-rendering:geometricPrecision; text-rendering:geometricPrecision; image-rendering:optimizeQuality; fill-rule:evenodd; clip-rule:evenodd" xmlns:xlink="http://www.w3.org/1999/xlink">
<g><path style="opacity:1" fill="#eb641f" d="M 254.5,-0.5 C 255.167,-0.5 255.833,-0.5 256.5,-0.5C 258.675,7.86648 261.009,16.1998 263.5,24.5C 263.5,25.8333 263.5,27.1667 263.5,28.5C 256.833,28.5 250.167,28.5 243.5,28.5C 243.5,27.1667 243.5,25.8333 243.5,24.5C 247.369,16.2154 251.036,7.88202 254.5,-0.5 Z"/></g>
<g><path style="opacity:1" fill="#ef7b16" d="M 243.5,24.5 C 243.5,25.8333 243.5,27.1667 243.5,28.5C 250.167,28.5 256.833,28.5 263.5,28.5C 263.5,27.1667 263.5,25.8333 263.5,24.5C 266.072,30.216 268.072,36.216 269.5,42.5C 269.286,44.1439 269.62,45.6439 270.5,47C 267.294,47.2963 264.128,47.7963 261,48.5C 253.536,47.7157 246.036,47.2157 238.5,47C 237.426,46.2613 236.759,45.2613 236.5,44C 237.233,42.2341 237.567,40.4008 237.5,38.5C 238.988,33.5329 240.988,28.8662 243.5,24.5 Z"/></g>
<g><path style="opacity:1" fill="#f29119" d="M 237.5,38.5 C 237.567,40.4008 237.233,42.2341 236.5,44C 236.759,45.2613 237.426,46.2613 238.5,47C 246.036,47.2157 253.536,47.7157 261,48.5C 264.128,47.7963 267.294,47.2963 270.5,47C 269.62,45.6439 269.286,44.1439 269.5,42.5C 272.61,50.1755 274.944,58.1755 276.5,66.5C 276.5,67.8333 276.5,69.1667 276.5,70.5C 273.833,70.5 271.167,70.5 268.5,70.5C 269.107,65.9662 267.44,64.2995 263.5,65.5C 261.557,61.4341 260.057,57.1007 259,52.5C 256.913,55.0703 255.08,57.737 253.5,60.5C 252.504,60.5858 251.671,60.2524 251,59.5C 250.2,62.6354 248.366,64.8021 245.5,66C 240.447,66.2174 235.447,66.7174 230.5,67.5C 229.575,66.6431 228.908,65.6431 228.5,64.5C 230.731,55.4707 233.731,46.804 237.5,38.5 Z"/></g>
<g><path style="opacity:1" fill="#f4a31a" d="M 253.5,60.5 C 252.008,64.8178 250.008,68.8178 247.5,72.5C 245.224,72.7565 244.057,74.0898 244,76.5C 242.43,75.6422 240.763,74.9755 239,74.5C 236.658,75.6432 234.158,76.3099 231.5,76.5C 229.048,76.4609 227.048,75.7943 225.5,74.5C 225.723,70.8379 226.723,67.5046 228.5,64.5C 228.908,65.6431 229.575,66.6431 230.5,67.5C 235.447,66.7174 240.447,66.2174 245.5,66C 248.366,64.8021 250.2,62.6354 251,59.5C 251.671,60.2524 252.504,60.5858 253.5,60.5 Z"/></g>
<g><path style="opacity:1" fill="#f7b31a" d="M 276.5,66.5 C 278.834,71.8175 280.167,77.4842 280.5,83.5C 280.423,87.2148 280.756,90.8815 281.5,94.5C 278.43,94.6323 275.43,94.299 272.5,93.5C 268.724,84.5026 265.724,75.1693 263.5,65.5C 267.44,64.2995 269.107,65.9662 268.5,70.5C 271.167,70.5 273.833,70.5 276.5,70.5C 276.5,69.1667 276.5,67.8333 276.5,66.5 Z"/></g>
<g><path style="opacity:1" fill="#f7b81d" d="M 247.5,72.5 C 243.618,81.4957 239.951,90.4957 236.5,99.5C 235.951,97.0987 235.118,94.7654 234,92.5C 233.333,95.1667 232.667,95.1667 232,92.5C 230.207,94.8056 228.04,95.1389 225.5,93.5C 223.132,94.5774 221.465,96.2441 220.5,98.5C 221.421,90.2256 223.087,82.2256 225.5,74.5C 227.048,75.7943 229.048,76.4609 231.5,76.5C 234.158,76.3099 236.658,75.6432 239,74.5C 240.763,74.9755 242.43,75.6422 244,76.5C 244.057,74.0898 245.224,72.7565 247.5,72.5 Z"/></g>
<g><path style="opacity:1" fill="#e32b2b" d="M 246.5,172.5 C 246.5,172.167 246.5,171.833 246.5,171.5C 244.216,167.927 242.216,164.26 240.5,160.5C 240.279,157.933 239.612,155.599 238.5,153.5C 237.13,126.313 243.297,100.98 257,77.5C 267.692,98.2627 272.692,120.263 272,143.5C 269.673,156.153 264.173,167.153 255.5,176.5C 254.635,177.583 253.635,177.749 252.5,177C 250.34,175.668 248.34,174.168 246.5,172.5 Z"/></g>
<g><path style="opacity:1" fill="#face1b" d="M 236.5,99.5 C 235.4,106.005 234.067,112.338 232.5,118.5C 232.5,116.833 232.5,115.167 232.5,113.5C 229.751,113.274 227.084,113.607 224.5,114.5C 223.522,114.023 222.689,113.357 222,112.5C 221.345,114.628 220.511,116.628 219.5,118.5C 218.876,118.083 218.543,117.416 218.5,116.5C 219.218,110.497 219.885,104.497 220.5,98.5C 221.465,96.2441 223.132,94.5774 225.5,93.5C 228.04,95.1389 230.207,94.8056 232,92.5C 232.667,95.1667 233.333,95.1667 234,92.5C 235.118,94.7654 235.951,97.0987 236.5,99.5 Z"/></g>
<g><path style="opacity:1" fill="#fbd230" d="M 280.5,83.5 C 281.748,86.9416 282.581,90.6083 283,94.5C 283.358,100.513 283.858,106.513 284.5,112.5C 284.489,114.045 284.156,115.378 283.5,116.5C 283.415,114.071 282.415,112.071 280.5,110.5C 279.522,110.977 278.689,111.643 278,112.5C 277.998,109.949 277.164,107.949 275.5,106.5C 274.033,102.298 273.033,97.9648 272.5,93.5C 275.43,94.299 278.43,94.6323 281.5,94.5C 280.756,90.8815 280.423,87.2148 280.5,83.5 Z"/></g>
<g><path style="opacity:1" fill="#fdea40" d="M 275.5,106.5 C 277.164,107.949 277.998,109.949 278,112.5C 278.689,111.643 279.522,110.977 280.5,110.5C 282.415,112.071 283.415,114.071 283.5,116.5C 283.963,125.031 282.963,133.364 280.5,141.5C 279.883,141.389 279.383,141.056 279,140.5C 278.667,141.833 278.333,143.167 278,144.5C 277.503,142.19 277.337,139.857 277.5,137.5C 277.846,127.083 277.179,116.75 275.5,106.5 Z"/></g>
<g><path style="opacity:1" fill="#fdea27" d="M 232.5,118.5 C 231.724,131.417 233.724,143.75 238.5,155.5C 238.402,157.553 239.069,159.22 240.5,160.5C 242.216,164.26 244.216,167.927 246.5,171.5C 245.167,171.833 245.167,172.167 246.5,172.5C 247.82,175.14 249.153,177.807 250.5,180.5C 249.833,180.5 249.167,180.5 248.5,180.5C 228.658,164.805 218.991,144.139 219.5,118.5C 220.511,116.628 221.345,114.628 222,112.5C 222.689,113.357 223.522,114.023 224.5,114.5C 227.084,113.607 229.751,113.274 232.5,113.5C 232.5,115.167 232.5,116.833 232.5,118.5 Z"/></g>
<g><path style="opacity:1" fill="#fde705" d="M 255.5,124.5 C 264.544,138.545 265.711,153.212 259,168.5C 257.315,170.017 255.815,171.684 254.5,173.5C 249.156,169.153 246.489,163.486 246.5,156.5C 247.073,145.119 250.073,134.452 255.5,124.5 Z"/></g>
<g><path style="opacity:1" fill="#fdf16a" d="M 277.5,137.5 C 277.337,139.857 277.503,142.19 278,144.5C 278.333,143.167 278.667,141.833 279,140.5C 279.383,141.056 279.883,141.389 280.5,141.5C 279.123,147.647 276.79,153.313 273.5,158.5C 272.662,158.158 272.328,157.492 272.5,156.5C 274.412,150.12 276.079,143.786 277.5,137.5 Z"/></g>
<g><path style="opacity:0.102" fill="#afc3ce" d="M 384.5,155.5 C 385.833,156.167 385.833,156.167 384.5,155.5 Z"/></g>
<g><path style="opacity:0.051" fill="#f6d6c5" d="M 238.5,153.5 C 239.612,155.599 240.279,157.933 240.5,160.5C 239.069,159.22 238.402,157.553 238.5,155.5C 238.5,154.833 238.5,154.167 238.5,153.5 Z"/></g>
<g><path style="opacity:0.553" fill="#faf8b6" d="M 272.5,156.5 C 272.328,157.492 272.662,158.158 273.5,158.5C 273.376,162.55 271.709,164.883 268.5,165.5C 269.609,162.292 270.942,159.292 272.5,156.5 Z"/></g>
<g><path style="opacity:0.735" fill="#816152" d="M 248.5,180.5 C 249.167,180.5 249.833,180.5 250.5,180.5C 254.371,180.185 258.038,180.518 261.5,181.5C 248.323,181.171 235.323,181.505 222.5,182.5C 218.5,182.5 214.5,182.5 210.5,182.5C 207.167,182.5 203.833,182.5 200.5,182.5C 200.5,181.833 200.833,181.5 201.5,181.5C 217.159,180.878 232.826,180.545 248.5,180.5 Z"/></g>
<g><path style="opacity:1" fill="#126eb3" d="M 201.5,181.5 C 200.833,181.5 200.5,181.833 200.5,182.5C 199.662,182.842 199.328,183.508 199.5,184.5C 195.432,188.239 192.099,192.572 189.5,197.5C 180.242,209.847 176.242,223.847 177.5,239.5C 169.584,241.152 161.584,242.152 153.5,242.5C 153.259,230.908 150.259,220.241 144.5,210.5C 143.112,204.974 140.778,199.974 137.5,195.5C 137.5,194.833 137.167,194.5 136.5,194.5C 129.994,181.165 123.827,167.831 118,154.5C 125.99,166.303 134.824,177.47 144.5,188C 146.078,189.094 147.745,189.928 149.5,190.5C 151.327,193.474 153.993,195.641 157.5,197C 169.396,198.717 179.062,194.883 186.5,185.5C 187.338,185.158 187.672,184.492 187.5,183.5C 198.23,171.931 208.063,159.597 217,146.5C 214.884,159.471 209.717,171.137 201.5,181.5 Z"/></g>
<g><path style="opacity:1" fill="#166eb4" d="M 175.5,183.5 C 174.662,183.842 174.328,184.508 174.5,185.5C 172.091,188.885 168.757,191.051 164.5,192C 159.828,191.842 155.161,191.342 150.5,190.5C 150.918,189.778 151.584,189.278 152.5,189C 147.454,182.265 147.287,175.432 152,168.5C 158.868,163.194 165.701,163.194 172.5,168.5C 176.345,172.93 177.345,177.93 175.5,183.5 Z"/></g>
<g><path style="opacity:0.349" fill="#9b6c56" d="M 263.5,181.5 C 272.05,181.29 280.384,181.957 288.5,183.5C 284.5,183.5 280.5,183.5 276.5,183.5C 272.167,182.833 267.833,182.167 263.5,181.5 Z"/></g>
<g><path style="opacity:0.012" fill="#a4937b" d="M 290.5,184.5 C 290.5,184.167 290.5,183.833 290.5,183.5C 294.548,183.395 298.548,183.728 302.5,184.5C 303.167,184.5 303.5,184.833 303.5,185.5C 301.833,185.5 300.167,185.5 298.5,185.5C 296.052,184.527 293.385,184.194 290.5,184.5 Z"/></g>
<g><path style="opacity:0.945" fill="#9d9570" d="M 175.5,183.5 C 179.321,184.226 183.321,184.226 187.5,183.5C 187.672,184.492 187.338,185.158 186.5,185.5C 182.707,185.115 178.707,185.115 174.5,185.5C 174.328,184.508 174.662,183.842 175.5,183.5 Z"/></g>
<g><path style="opacity:1" fill="#e96e17" d="M 276.5,183.5 C 280.5,183.5 284.5,183.5 288.5,183.5C 289.167,183.5 289.833,183.5 290.5,183.5C 290.5,183.833 290.5,184.167 290.5,184.5C 289.167,184.5 287.833,184.5 286.5,184.5C 286.804,188.083 286.137,191.583 284.5,195C 284.645,195.772 284.978,196.439 285.5,197C 287.382,197.198 289.048,197.698 290.5,198.5C 285.63,198.31 280.964,197.644 276.5,196.5C 275.048,195.698 273.382,195.198 271.5,195C 272.488,191.255 273.155,187.422 273.5,183.5C 274.5,183.5 275.5,183.5 276.5,183.5 Z"/></g>
<g><path style="opacity:1" fill="#ed7216" d="M 210.5,182.5 C 214.5,182.5 218.5,182.5 222.5,182.5C 223.306,183.997 223.972,185.664 224.5,187.5C 222.321,189.283 222.321,191.283 224.5,193.5C 224.137,194.183 223.804,194.85 223.5,195.5C 219.846,195.942 216.179,196.276 212.5,196.5C 213.278,195.844 213.944,195.011 214.5,194C 212.858,190.24 211.525,186.407 210.5,182.5 Z"/></g>
<g><path style="opacity:1" fill="#e5491d" d="M 222.5,182.5 C 235.323,181.505 248.323,181.171 261.5,181.5C 262.167,181.5 262.833,181.5 263.5,181.5C 267.833,182.167 272.167,182.833 276.5,183.5C 275.5,183.5 274.5,183.5 273.5,183.5C 273.155,187.422 272.488,191.255 271.5,195C 273.382,195.198 275.048,195.698 276.5,196.5C 268.842,196.014 261.175,195.68 253.5,195.5C 251.521,194.188 249.855,192.521 248.5,190.5C 246.118,192.215 244.118,194.215 242.5,196.5C 236.355,195.51 230.022,195.177 223.5,195.5C 223.804,194.85 224.137,194.183 224.5,193.5C 222.321,191.283 222.321,189.283 224.5,187.5C 223.972,185.664 223.306,183.997 222.5,182.5 Z"/></g>
<g><path style="opacity:1" fill="#f08713" d="M 290.5,184.5 C 293.385,184.194 296.052,184.527 298.5,185.5C 295.63,186.535 294.964,188.369 296.5,191C 296.06,193.597 295.393,196.097 294.5,198.5C 293.167,198.5 291.833,198.5 290.5,198.5C 289.048,197.698 287.382,197.198 285.5,197C 284.978,196.439 284.645,195.772 284.5,195C 286.137,191.583 286.804,188.083 286.5,184.5C 287.833,184.5 289.167,184.5 290.5,184.5 Z"/></g>
<g><path style="opacity:1" fill="#f08d13" d="M 200.5,182.5 C 203.833,182.5 207.167,182.5 210.5,182.5C 211.525,186.407 212.858,190.24 214.5,194C 213.944,195.011 213.278,195.844 212.5,196.5C 211.167,196.5 209.833,196.5 208.5,196.5C 203.95,197.155 200.95,195.321 199.5,191C 199.986,188.973 199.986,186.807 199.5,184.5C 199.328,183.508 199.662,182.842 200.5,182.5 Z"/></g>
<g><path style="opacity:1" fill="#efe01c" d="M 186.5,185.5 C 179.062,194.883 169.396,198.717 157.5,197C 153.993,195.641 151.327,193.474 149.5,190.5C 149.833,190.5 150.167,190.5 150.5,190.5C 155.161,191.342 159.828,191.842 164.5,192C 168.757,191.051 172.091,188.885 174.5,185.5C 178.707,185.115 182.707,185.115 186.5,185.5 Z"/></g>
<g><path style="opacity:1" fill="#f7e60d" d="M 253.5,195.5 C 272.054,218.381 295.721,233.048 324.5,239.5C 327.391,240.403 330.391,240.736 333.5,240.5C 353.22,242.14 372.554,239.64 391.5,233C 381.611,224.884 370.611,218.551 358.5,214C 357.748,213.329 357.414,212.496 357.5,211.5C 358.992,207.182 360.992,203.182 363.5,199.5C 369.977,201.657 376.31,203.99 382.5,206.5C 385.331,207.079 387.664,208.412 389.5,210.5C 393.085,213.969 397.085,216.969 401.5,219.5C 402.08,221.749 403.413,223.415 405.5,224.5C 405.64,226.124 404.973,227.29 403.5,228C 404.516,228.519 405.182,229.353 405.5,230.5C 404.18,235.113 403.18,239.779 402.5,244.5C 402.5,244.833 402.5,245.167 402.5,245.5C 391.268,247.928 379.935,249.928 368.5,251.5C 363.972,251.77 359.639,252.437 355.5,253.5C 325.413,256.064 298.413,248.231 274.5,230C 266.278,222.773 257.778,215.94 249,209.5C 238.426,219.409 227.26,228.576 215.5,237C 205.136,243.174 194.136,247.674 182.5,250.5C 177.578,250.87 172.911,251.87 168.5,253.5C 144.904,254.174 121.57,252.007 98.5,247C 95.5547,246.861 93.2214,245.694 91.5,243.5C 89.9281,240.785 88.9281,237.785 88.5,234.5C 88.5,232.833 88.5,231.167 88.5,229.5C 89.8734,229.657 91.2068,229.49 92.5,229C 90.3359,228.086 88.3359,226.919 86.5,225.5C 88.2776,223.736 89.6109,221.736 90.5,219.5C 93.4274,218.243 95.7607,216.243 97.5,213.5C 98.7158,211.549 100.382,210.049 102.5,209C 106.577,206.295 110.91,204.128 115.5,202.5C 120.032,201.895 124.032,200.228 127.5,197.5C 130.877,197.041 134.211,196.374 137.5,195.5C 140.778,199.974 143.112,204.974 144.5,210.5C 129.022,215.57 115.022,223.237 102.5,233.5C 118.818,240.118 135.818,243.118 153.5,242.5C 161.584,242.152 169.584,241.152 177.5,239.5C 203.643,232.039 225.31,217.706 242.5,196.5C 244.118,194.215 246.118,192.215 248.5,190.5C 249.855,192.521 251.521,194.188 253.5,195.5 Z"/></g>
<g><path style="opacity:1" fill="#eba716" d="M 199.5,184.5 C 199.986,186.807 199.986,188.973 199.5,191C 200.95,195.321 203.95,197.155 208.5,196.5C 203.678,197.399 198.678,198.066 193.5,198.5C 191.955,198.489 190.622,198.156 189.5,197.5C 192.099,192.572 195.432,188.239 199.5,184.5 Z"/></g>
<g><path style="opacity:1" fill="#166eb3" d="M 318.5,187.5 C 318.062,187.435 317.728,187.601 317.5,188C 319.095,190.102 321.095,191.602 323.5,192.5C 327.311,196.677 332.144,198.677 338,198.5C 341.769,198.41 345.269,197.41 348.5,195.5C 348.137,194.817 347.804,194.15 347.5,193.5C 349.898,193.741 351.898,193.074 353.5,191.5C 354.167,191.5 354.5,191.167 354.5,190.5C 358.067,188.443 361.234,185.777 364,182.5C 371.094,173.946 377.927,165.279 384.5,156.5C 378.029,170.573 371.362,184.573 364.5,198.5C 363.833,198.5 363.5,198.833 363.5,199.5C 360.992,203.182 358.992,207.182 357.5,211.5C 352.848,220.514 350.181,230.18 349.5,240.5C 344.167,240.5 338.833,240.5 333.5,240.5C 330.391,240.736 327.391,240.403 324.5,239.5C 326.304,225.045 322.97,212.045 314.5,200.5C 311.188,195.196 307.521,190.196 303.5,185.5C 303.5,184.833 303.167,184.5 302.5,184.5C 293.67,173.175 287.836,160.508 285,146.5C 292.333,156.5 299.667,166.5 307,176.5C 310.806,180.479 314.639,184.145 318.5,187.5 Z M 346.5,191.5 C 348.833,191.5 351.167,191.5 353.5,191.5C 351.898,193.074 349.898,193.741 347.5,193.5C 347.167,192.833 346.833,192.167 346.5,191.5 Z"/></g>
<g><path style="opacity:0.11" fill="#cccdbc" d="M 342.5,192.5 C 343.568,191.566 344.901,191.232 346.5,191.5C 346.833,192.167 347.167,192.833 347.5,193.5C 345.708,193.634 344.042,193.301 342.5,192.5 Z"/></g>
<g><path style="opacity:1" fill="#f1e51c" d="M 332.5,190.5 C 335.789,191.374 339.123,192.041 342.5,192.5C 344.042,193.301 345.708,193.634 347.5,193.5C 347.804,194.15 348.137,194.817 348.5,195.5C 345.269,197.41 341.769,198.41 338,198.5C 332.144,198.677 327.311,196.677 323.5,192.5C 323.484,190.516 324.484,189.516 326.5,189.5C 328.453,190.156 330.453,190.489 332.5,190.5 Z"/></g>
<g><path style="opacity:1" fill="#cfba3e" d="M 318.5,187.5 C 322.154,187.942 325.821,188.276 329.5,188.5C 329.5,189.167 329.833,189.5 330.5,189.5C 331.492,189.328 332.158,189.662 332.5,190.5C 330.453,190.489 328.453,190.156 326.5,189.5C 324.484,189.516 323.484,190.516 323.5,192.5C 321.095,191.602 319.095,190.102 317.5,188C 317.728,187.601 318.062,187.435 318.5,187.5 Z"/></g>
<g><path style="opacity:1" fill="#1970b5" d="M 354.5,190.5 C 353.833,190.5 353.5,190.833 353.5,191.5C 351.167,191.5 348.833,191.5 346.5,191.5C 344.901,191.232 343.568,191.566 342.5,192.5C 339.123,192.041 335.789,191.374 332.5,190.5C 332.158,189.662 331.492,189.328 330.5,189.5C 329.833,189.5 329.5,189.167 329.5,188.5C 324.746,180.199 325.746,172.699 332.5,166C 339.812,162.319 346.312,163.486 352,169.5C 353.782,174.575 355.282,179.742 356.5,185C 355.923,186.9 355.256,188.733 354.5,190.5 Z"/></g>
<g><path style="opacity:1" fill="#f1a812" d="M 298.5,185.5 C 300.167,185.5 301.833,185.5 303.5,185.5C 307.521,190.196 311.188,195.196 314.5,200.5C 313.903,201.139 313.07,201.472 312,201.5C 306.003,200.623 300.17,199.623 294.5,198.5C 295.393,196.097 296.06,193.597 296.5,191C 294.964,188.369 295.63,186.535 298.5,185.5 Z"/></g>
<g><path style="opacity:1" fill="#aba34a" d="M 136.5,194.5 C 137.167,194.5 137.5,194.833 137.5,195.5C 134.211,196.374 130.877,197.041 127.5,197.5C 130.145,195.69 133.145,194.69 136.5,194.5 Z"/></g>
<g><path style="opacity:1" fill="#2c2b28" d="M 223.5,195.5 C 230.022,195.177 236.355,195.51 242.5,196.5C 225.31,217.706 203.643,232.039 177.5,239.5C 176.242,223.847 180.242,209.847 189.5,197.5C 190.622,198.156 191.955,198.489 193.5,198.5C 198.678,198.066 203.678,197.399 208.5,196.5C 209.833,196.5 211.167,196.5 212.5,196.5C 216.179,196.276 219.846,195.942 223.5,195.5 Z"/></g>
<g><path style="opacity:1" fill="#2c2a27" d="M 253.5,195.5 C 261.175,195.68 268.842,196.014 276.5,196.5C 280.964,197.644 285.63,198.31 290.5,198.5C 291.833,198.5 293.167,198.5 294.5,198.5C 300.17,199.623 306.003,200.623 312,201.5C 313.07,201.472 313.903,201.139 314.5,200.5C 322.97,212.045 326.304,225.045 324.5,239.5C 295.721,233.048 272.054,218.381 253.5,195.5 Z"/></g>
<g><path style="opacity:1" fill="#bcb240" d="M 127.5,197.5 C 124.032,200.228 120.032,201.895 115.5,202.5C 119.099,200.072 123.099,198.406 127.5,197.5 Z"/></g>
<g><path style="opacity:0.718" fill="#aea665" d="M 363.5,199.5 C 363.5,198.833 363.833,198.5 364.5,198.5C 370.994,200.214 376.994,202.88 382.5,206.5C 376.31,203.99 369.977,201.657 363.5,199.5 Z"/></g>
<g><path style="opacity:1" fill="#2c2b28" d="M 144.5,210.5 C 150.259,220.241 153.259,230.908 153.5,242.5C 135.818,243.118 118.818,240.118 102.5,233.5C 115.022,223.237 129.022,215.57 144.5,210.5 Z"/></g>
<g><path style="opacity:1" fill="#b7ac59" d="M 389.5,210.5 C 394.224,212.529 398.224,215.529 401.5,219.5C 397.085,216.969 393.085,213.969 389.5,210.5 Z"/></g>
<g><path style="opacity:1" fill="#ada147" d="M 97.5,213.5 C 95.7607,216.243 93.4274,218.243 90.5,219.5C 92.2393,216.757 94.5726,214.757 97.5,213.5 Z"/></g>
<g><path style="opacity:1" fill="#2c2c28" d="M 357.5,211.5 C 357.414,212.496 357.748,213.329 358.5,214C 370.611,218.551 381.611,224.884 391.5,233C 372.554,239.64 353.22,242.14 333.5,240.5C 338.833,240.5 344.167,240.5 349.5,240.5C 350.181,230.18 352.848,220.514 357.5,211.5 Z"/></g>
<g><path style="opacity:1" fill="#ada453" d="M 401.5,219.5 C 403.587,220.585 404.92,222.251 405.5,224.5C 403.413,223.415 402.08,221.749 401.5,219.5 Z"/></g>
<g><path style="opacity:1" fill="#a0974d" d="M 405.5,224.5 C 406.525,225.374 407.192,226.541 407.5,228C 406.198,233.734 404.531,239.234 402.5,244.5C 403.18,239.779 404.18,235.113 405.5,230.5C 405.182,229.353 404.516,228.519 403.5,228C 404.973,227.29 405.64,226.124 405.5,224.5 Z"/></g>
<g><path style="opacity:1" fill="#bbaf3f" d="M 90.5,219.5 C 89.6109,221.736 88.2776,223.736 86.5,225.5C 88.3359,226.919 90.3359,228.086 92.5,229C 91.2068,229.49 89.8734,229.657 88.5,229.5C 88.5,231.167 88.5,232.833 88.5,234.5C 87.2126,231.925 85.8793,229.259 84.5,226.5C 85.8037,223.533 87.8037,221.199 90.5,219.5 Z"/></g>
<g><path style="opacity:1" fill="#3a3285" d="M 355.5,253.5 C 358.85,253.665 362.183,253.498 365.5,253C 366.737,252.768 367.737,252.268 368.5,251.5C 379.935,249.928 391.268,247.928 402.5,245.5C 392.34,260.668 380.674,274.668 367.5,287.5C 367.013,286.527 366.513,285.527 366,284.5C 362.204,288.449 359.037,292.783 356.5,297.5C 354.393,299.727 352.06,301.727 349.5,303.5C 345.841,296.853 341.674,290.519 337,284.5C 332.163,291.504 327.829,298.837 324,306.5C 320.333,298.833 316.667,291.167 313,283.5C 308.409,291.014 304.076,298.68 300,306.5C 299.5,296.506 299.334,286.506 299.5,276.5C 299.5,268.833 299.5,261.167 299.5,253.5C 296.5,253.5 293.5,253.5 290.5,253.5C 289.789,264.83 289.122,276.164 288.5,287.5C 288.167,287.5 287.833,287.5 287.5,287.5C 286.521,286.235 285.521,284.901 284.5,283.5C 282.28,290.884 280.28,298.218 278.5,305.5C 279.877,287.512 280.71,269.512 281,251.5C 271.257,259.287 261.424,266.954 251.5,274.5C 249.935,283.765 249.269,293.098 249.5,302.5C 247.5,300.833 245.5,299.167 243.5,297.5C 242.933,289.842 242.266,282.176 241.5,274.5C 231.523,267.024 221.69,259.358 212,251.5C 212.013,264.841 212.513,278.175 213.5,291.5C 211.292,290.106 209.792,288.106 209,285.5C 208.184,284.177 207.017,283.511 205.5,283.5C 204.339,273.587 203.672,263.587 203.5,253.5C 200.5,253.5 197.5,253.5 194.5,253.5C 194.5,265.167 194.5,276.833 194.5,288.5C 194.666,293.844 194.499,299.177 194,304.5C 193.586,304.957 193.086,305.291 192.5,305.5C 187.668,298.503 182.834,291.503 178,284.5C 174,291.833 170,299.167 166,306.5C 162.001,299.018 157.834,291.685 153.5,284.5C 149.185,289.784 145.351,295.45 142,301.5C 141.184,302.823 140.017,303.489 138.5,303.5C 137.5,303.167 136.833,302.5 136.5,301.5C 133.172,295.516 129.339,289.85 125,284.5C 124.505,286.473 124.338,288.473 124.5,290.5C 110.78,276.721 99.7802,261.055 91.5,243.5C 93.2214,245.694 95.5547,246.861 98.5,247C 121.57,252.007 144.904,254.174 168.5,253.5C 172.509,253.142 176.509,252.642 180.5,252C 181.416,251.722 182.082,251.222 182.5,250.5C 194.136,247.674 205.136,243.174 215.5,237C 227.26,228.576 238.426,219.409 249,209.5C 257.778,215.94 266.278,222.773 274.5,230C 298.413,248.231 325.413,256.064 355.5,253.5 Z"/></g>
<g><path style="opacity:1" fill="#56475e" d="M 182.5,250.5 C 182.082,251.222 181.416,251.722 180.5,252C 176.509,252.642 172.509,253.142 168.5,253.5C 172.911,251.87 177.578,250.87 182.5,250.5 Z"/></g>
<g><path style="opacity:1" fill="#5f4f57" d="M 368.5,251.5 C 367.737,252.268 366.737,252.768 365.5,253C 362.183,253.498 358.85,253.665 355.5,253.5C 359.639,252.437 363.972,251.77 368.5,251.5 Z"/></g>
<g><path style="opacity:1" fill="#f0f0f1" d="M 278.5,305.5 C 278.762,306.978 278.429,308.311 277.5,309.5C 275.429,311.185 273.429,312.852 271.5,314.5C 263.905,319.422 256.572,324.755 249.5,330.5C 248.571,329.311 248.238,327.978 248.5,326.5C 249.483,322.702 249.817,318.702 249.5,314.5C 249.5,310.5 249.5,306.5 249.5,302.5C 249.269,293.098 249.935,283.765 251.5,274.5C 261.424,266.954 271.257,259.287 281,251.5C 280.71,269.512 279.877,287.512 278.5,305.5 Z"/></g>
<g><path style="opacity:1" fill="#f2f2f3" d="M 243.5,297.5 C 243.5,303.167 243.5,308.833 243.5,314.5C 243.5,319.833 243.5,325.167 243.5,330.5C 236.778,325.112 229.778,320.112 222.5,315.5C 220.188,313.364 217.688,311.364 215,309.5C 214.409,303.502 213.909,297.502 213.5,291.5C 212.513,278.175 212.013,264.841 212,251.5C 221.69,259.358 231.523,267.024 241.5,274.5C 242.266,282.176 242.933,289.842 243.5,297.5 Z"/></g>
<g><path style="opacity:1" fill="#3b3b3b" d="M 217.5,264.5 C 215.804,264.315 214.471,263.481 213.5,262C 215.412,261.721 216.746,262.554 217.5,264.5 Z"/></g>
<g><path style="opacity:1" fill="#3e3e3e" d="M 272.5,266.5 C 274.281,263.954 276.614,262.454 279.5,262C 277.449,264.02 275.116,265.52 272.5,266.5 Z"/></g>
<g><path style="opacity:1" fill="#454545" d="M 217.5,264.5 C 223.701,267.765 229.368,271.765 234.5,276.5C 228.299,273.235 222.632,269.235 217.5,264.5 Z"/></g>
<g><path style="opacity:1" fill="#393939" d="M 219.5,273.5 C 217.804,273.315 216.471,272.481 215.5,271C 217.412,270.721 218.746,271.554 219.5,273.5 Z"/></g>
<g><path style="opacity:1" fill="#3f3f3f" d="M 219.5,273.5 C 221.404,273.738 222.738,274.738 223.5,276.5C 221.596,276.262 220.262,275.262 219.5,273.5 Z"/></g>
<g><path style="opacity:1" fill="#3f3f3f" d="M 266.5,278.5 C 269.561,274.91 273.228,272.41 277.5,271C 274.208,274.138 270.542,276.638 266.5,278.5 Z"/></g>
<g><path style="opacity:1" fill="#494949" d="M 272.5,266.5 C 266.801,271.687 260.635,276.354 254,280.5C 253.833,280.167 253.667,279.833 253.5,279.5C 259.595,274.725 265.928,270.392 272.5,266.5 Z"/></g>
<g><path style="opacity:1" fill="#343434" d="M 234.5,276.5 C 236.196,276.685 237.529,277.519 238.5,279C 236.588,279.279 235.254,278.446 234.5,276.5 Z"/></g>
<g><path style="opacity:1" fill="#404040" d="M 273.5,281.5 C 274.254,279.554 275.588,278.721 277.5,279C 276.529,280.481 275.196,281.315 273.5,281.5 Z"/></g>
<g><path style="opacity:1" fill="#4a4a4a" d="M 266.5,278.5 C 263.762,281.766 260.429,283.933 256.5,285C 259.464,282.19 262.798,280.024 266.5,278.5 Z"/></g>
<g><path style="opacity:1" fill="#434342" d="M 223.5,276.5 C 229.541,279.695 235.208,283.528 240.5,288C 237.701,287.268 235.034,285.934 232.5,284C 229.31,281.636 226.31,279.136 223.5,276.5 Z"/></g>
<g><path style="opacity:1" fill="#3a3a3a" d="M 273.5,281.5 C 270.725,284.605 267.392,286.938 263.5,288.5C 266.275,285.395 269.608,283.062 273.5,281.5 Z"/></g>
<g><path style="opacity:1" fill="#2e2d2d" d="M 194.5,288.5 C 195.493,297.318 195.827,306.318 195.5,315.5C 181.833,315.5 168.167,315.5 154.5,315.5C 148.443,312.471 143.109,308.471 138.5,303.5C 140.017,303.489 141.184,302.823 142,301.5C 145.351,295.45 149.185,289.784 153.5,284.5C 157.834,291.685 162.001,299.018 166,306.5C 170,299.167 174,291.833 178,284.5C 182.834,291.503 187.668,298.503 192.5,305.5C 193.086,305.291 193.586,304.957 194,304.5C 194.499,299.177 194.666,293.844 194.5,288.5 Z"/></g>
<g><path style="opacity:1" fill="#38363d" d="M 367.5,287.5 C 364.457,291.544 360.791,294.877 356.5,297.5C 359.037,292.783 362.204,288.449 366,284.5C 366.513,285.527 367.013,286.527 367.5,287.5 Z"/></g>
<g><path style="opacity:0.776" fill="#f3f3f6" d="M 287.5,287.5 C 287.833,287.5 288.167,287.5 288.5,287.5C 292.636,296.558 292.303,305.391 287.5,314C 290.926,315.653 294.593,316.487 298.5,316.5C 286.01,322.621 273.177,328.287 260,333.5C 258.278,333.389 258.112,332.889 259.5,332C 267.962,326.69 275.962,320.857 283.5,314.5C 284.496,314.586 285.329,314.252 286,313.5C 286.655,304.838 287.155,296.172 287.5,287.5 Z"/></g>
<g><path style="opacity:1" fill="#302e30" d="M 299.5,276.5 C 299.334,286.506 299.5,296.506 300,306.5C 304.076,298.68 308.409,291.014 313,283.5C 316.667,291.167 320.333,298.833 324,306.5C 327.829,298.837 332.163,291.504 337,284.5C 341.674,290.519 345.841,296.853 349.5,303.5C 343.815,308.006 337.815,312.006 331.5,315.5C 320.679,314.505 309.679,314.172 298.5,314.5C 298.171,301.656 298.505,288.989 299.5,276.5 Z"/></g>
<g><path style="opacity:1" fill="#454545" d="M 236.5,293.5 C 230.459,290.305 224.792,286.472 219.5,282C 221.279,282.044 222.945,282.711 224.5,284C 228.751,286.945 232.751,290.112 236.5,293.5 Z"/></g>
<g><path style="opacity:1" fill="#323232" d="M 272.5,290.5 C 273.002,288.915 274.002,288.415 275.5,289C 274.756,290.039 273.756,290.539 272.5,290.5 Z"/></g>
<g><path style="opacity:1" fill="#2d2c2d" d="M 287.5,287.5 C 287.155,296.172 286.655,304.838 286,313.5C 285.329,314.252 284.496,314.586 283.5,314.5C 279.5,314.5 275.5,314.5 271.5,314.5C 273.429,312.852 275.429,311.185 277.5,309.5C 278.429,308.311 278.762,306.978 278.5,305.5C 280.28,298.218 282.28,290.884 284.5,283.5C 285.521,284.901 286.521,286.235 287.5,287.5 Z"/></g>
<g><path style="opacity:1" fill="#383636" d="M 205.5,283.5 C 207.017,283.511 208.184,284.177 209,285.5C 209.792,288.106 211.292,290.106 213.5,291.5C 213.909,297.502 214.409,303.502 215,309.5C 217.688,311.364 220.188,313.364 222.5,315.5C 218.833,315.5 215.167,315.5 211.5,315.5C 210.391,315.443 209.391,315.11 208.5,314.5C 206.251,304.435 205.251,294.102 205.5,283.5 Z"/></g>
<g><path style="opacity:1" fill="#424242" d="M 263.5,288.5 C 260.4,292.034 256.733,294.534 252.5,296C 255.792,292.862 259.458,290.362 263.5,288.5 Z"/></g>
<g><path style="opacity:1" fill="#3a3a3a" d="M 272.5,290.5 C 271.738,292.262 270.404,293.262 268.5,293.5C 269.262,291.738 270.596,290.738 272.5,290.5 Z"/></g>
<g><path style="opacity:1" fill="#38373c" d="M 136.5,301.5 C 131.895,298.564 127.895,294.898 124.5,290.5C 124.338,288.473 124.505,286.473 125,284.5C 129.339,289.85 133.172,295.516 136.5,301.5 Z"/></g>
<g><path style="opacity:1" fill="#424242" d="M 235.5,301.5 C 229.067,297.582 222.733,293.415 216.5,289C 215.549,288.282 215.383,287.449 216,286.5C 222.839,291.157 229.339,296.157 235.5,301.5 Z"/></g>
<g><path style="opacity:1" fill="#383838" d="M 236.5,293.5 C 238.196,293.685 239.529,294.519 240.5,296C 238.588,296.279 237.254,295.446 236.5,293.5 Z"/></g>
<g><path style="opacity:1" fill="#3b3b3b" d="M 268.5,293.5 C 268.027,294.906 267.027,295.573 265.5,295.5C 265.973,294.094 266.973,293.427 268.5,293.5 Z"/></g>
<g><path style="opacity:1" fill="#494949" d="M 224.5,301.5 C 221.553,300.356 218.887,298.689 216.5,296.5C 217.002,295.479 217.668,295.312 218.5,296C 220.763,297.617 222.763,299.45 224.5,301.5 Z"/></g>
<g><path style="opacity:1" fill="#3a3a3a" d="M 272.5,298.5 C 273.254,296.554 274.588,295.721 276.5,296C 275.529,297.481 274.196,298.315 272.5,298.5 Z"/></g>
<g><path style="opacity:1" fill="#3c3c3c" d="M 265.5,295.5 C 264.738,297.262 263.404,298.262 261.5,298.5C 262.262,296.738 263.596,295.738 265.5,295.5 Z"/></g>
<g><path style="opacity:1" fill="#2b2a2a" d="M 243.5,297.5 C 245.5,299.167 247.5,300.833 249.5,302.5C 249.5,306.5 249.5,310.5 249.5,314.5C 247.5,314.5 245.5,314.5 243.5,314.5C 243.5,308.833 243.5,303.167 243.5,297.5 Z"/></g>
<g><path style="opacity:1" fill="#343434" d="M 224.5,301.5 C 226.027,301.427 227.027,302.094 227.5,303.5C 225.973,303.573 224.973,302.906 224.5,301.5 Z"/></g>
<g><path style="opacity:1" fill="#454545" d="M 235.5,301.5 C 237.937,301.886 239.937,303.053 241.5,305C 240.833,305.667 240.167,305.667 239.5,305C 237.907,304.051 236.574,302.885 235.5,301.5 Z"/></g>
<g><path style="opacity:1" fill="#444444" d="M 261.5,298.5 C 260.196,300.982 258.196,302.149 255.5,302C 257.391,300.558 259.391,299.391 261.5,298.5 Z"/></g>
<g><path style="opacity:1" fill="#373737" d="M 222.5,308.5 C 220.391,307.609 218.391,306.442 216.5,305C 219.196,304.851 221.196,306.018 222.5,308.5 Z"/></g>
<g><path style="opacity:1" fill="#3c3c3c" d="M 227.5,303.5 C 230.37,304.433 232.704,306.1 234.5,308.5C 231.63,307.567 229.296,305.9 227.5,303.5 Z"/></g>
<g><path style="opacity:1" fill="#444444" d="M 272.5,298.5 C 266.571,304.283 259.905,308.783 252.5,312C 259.051,307.232 265.718,302.732 272.5,298.5 Z"/></g>
<g><path style="opacity:1" fill="#4a4a4a" d="M 270.5,308.5 C 271.804,306.018 273.804,304.851 276.5,305C 274.609,306.442 272.609,307.609 270.5,308.5 Z"/></g>
<g><path style="opacity:1" fill="#3e3e3e" d="M 234.5,308.5 C 236.027,308.427 237.027,309.094 237.5,310.5C 235.973,310.573 234.973,309.906 234.5,308.5 Z"/></g>
<g><path style="opacity:1" fill="#343434" d="M 270.5,308.5 C 270.027,309.906 269.027,310.573 267.5,310.5C 267.973,309.094 268.973,308.427 270.5,308.5 Z"/></g>
<g><path style="opacity:1" fill="#373737" d="M 237.5,310.5 C 238.756,310.461 239.756,310.961 240.5,312C 239.002,312.585 238.002,312.085 237.5,310.5 Z"/></g>
<g><path style="opacity:1" fill="#3f3f3f" d="M 222.5,308.5 C 226.392,310.062 229.725,312.395 232.5,315.5C 228.608,313.938 225.275,311.605 222.5,308.5 Z"/></g>
<g><path style="opacity:1" fill="#3d3d3d" d="M 267.5,310.5 C 267.027,311.906 266.027,312.573 264.5,312.5C 264.973,311.094 265.973,310.427 267.5,310.5 Z"/></g>
<g><path style="opacity:1" fill="#333333" d="M 264.5,312.5 C 263.738,314.262 262.404,315.262 260.5,315.5C 261.262,313.738 262.596,312.738 264.5,312.5 Z"/></g>
<g><path style="opacity:0.887" fill="#edecf4" d="M 208.5,314.5 C 209.391,315.11 210.391,315.443 211.5,315.5C 219.409,322.133 227.743,328.3 236.5,334C 225.076,329.79 213.743,325.29 202.5,320.5C 207.5,321.5 209.5,319.5 208.5,314.5 Z"/></g>
<g><path style="opacity:1" fill="#5e5691" d="M 243.5,314.5 C 245.5,314.5 247.5,314.5 249.5,314.5C 249.817,318.702 249.483,322.702 248.5,326.5C 248.5,322.833 248.5,319.167 248.5,315.5C 247.167,315.5 245.833,315.5 244.5,315.5C 244.821,320.695 244.487,325.695 243.5,330.5C 243.5,325.167 243.5,319.833 243.5,314.5 Z"/></g>
<g><path style="opacity:1" fill="#3e3686" d="M 271.5,314.5 C 275.5,314.5 279.5,314.5 283.5,314.5C 275.962,320.857 267.962,326.69 259.5,332C 258.112,332.889 258.278,333.389 260,333.5C 273.177,328.287 286.01,322.621 298.5,316.5C 298.5,315.833 298.5,315.167 298.5,314.5C 309.679,314.172 320.679,314.505 331.5,315.5C 307.362,330.546 281.029,339.212 252.5,341.5C 244.833,341.5 237.167,341.5 229.5,341.5C 201.891,339.965 176.891,331.299 154.5,315.5C 168.167,315.5 181.833,315.5 195.5,315.5C 195.369,316.376 195.702,317.043 196.5,317.5C 198.78,318.136 200.78,319.136 202.5,320.5C 213.743,325.29 225.076,329.79 236.5,334C 227.743,328.3 219.409,322.133 211.5,315.5C 215.167,315.5 218.833,315.5 222.5,315.5C 229.778,320.112 236.778,325.112 243.5,330.5C 244.487,325.695 244.821,320.695 244.5,315.5C 245.833,315.5 247.167,315.5 248.5,315.5C 248.5,319.167 248.5,322.833 248.5,326.5C 248.238,327.978 248.571,329.311 249.5,330.5C 256.572,324.755 263.905,319.422 271.5,314.5 Z"/></g>
<g><path style="opacity:1" fill="#383838" d="M 260.5,315.5 C 260.027,316.906 259.027,317.573 257.5,317.5C 257.973,316.094 258.973,315.427 260.5,315.5 Z"/></g>
<g><path style="opacity:1" fill="#444445" d="M 232.5,315.5 C 236.202,317.024 239.536,319.19 242.5,322C 241.092,322.315 239.759,321.982 238.5,321C 236.237,319.383 234.237,317.55 232.5,315.5 Z"/></g>
<g><path style="opacity:1" fill="#414141" d="M 257.5,317.5 C 255.719,320.046 253.386,321.546 250.5,322C 252.551,319.98 254.884,318.48 257.5,317.5 Z"/></g>
<g><path style="opacity:1" fill="#f6aa0c" d="M 425.5,342.5 C 425.5,342.833 425.5,343.167 425.5,343.5C 426.663,348.469 427.83,353.469 429,358.5C 429.333,357.833 429.667,357.167 430,356.5C 430.852,357.571 431.685,358.571 432.5,359.5C 443.914,359.189 455.248,359.523 466.5,360.5C 467.674,361.514 468.34,362.847 468.5,364.5C 468.286,366.144 468.62,367.644 469.5,369C 467.77,370.852 466.604,370.686 466,368.5C 464.46,371.554 462.293,374.221 459.5,376.5C 453.499,380.836 447.166,384.669 440.5,388C 442.382,388.198 444.048,388.698 445.5,389.5C 424.633,391.295 403.966,393.628 383.5,396.5C 382.833,396.5 382.167,396.5 381.5,396.5C 376.797,396.437 372.13,396.771 367.5,397.5C 366.683,395.692 367.35,394.192 369.5,393C 374.375,390.816 379.375,388.816 384.5,387C 388.945,383.961 393.612,381.294 398.5,379C 403.125,374.22 407.625,369.387 412,364.5C 414.471,355.242 411.304,348.408 402.5,344C 392.891,340.307 383.058,337.474 373,335.5C 371.564,335.559 370.231,335.892 369,336.5C 368.015,335.186 366.848,334.186 365.5,333.5C 371.864,331.74 378.197,330.073 384.5,328.5C 390.325,328.114 396.158,327.781 402,327.5C 406.253,327.442 410.42,327.942 414.5,329C 411.833,330.333 411.833,331.667 414.5,333C 413.483,334.049 413.316,335.216 414,336.5C 414.667,334.5 416,333.167 418,332.5C 420.263,336.032 422.763,339.365 425.5,342.5 Z"/></g>
<g><path style="opacity:1" fill="#c49640" d="M 384.5,328.5 C 378.197,330.073 371.864,331.74 365.5,333.5C 362.167,333.5 358.833,333.5 355.5,333.5C 364.948,331.314 374.614,329.647 384.5,328.5 Z"/></g>
<g><path style="opacity:1" fill="#d19a3b" d="M 425.5,342.5 C 422.763,339.365 420.263,336.032 418,332.5C 416,333.167 414.667,334.5 414,336.5C 413.316,335.216 413.483,334.049 414.5,333C 411.833,331.667 411.833,330.333 414.5,329C 410.42,327.942 406.253,327.442 402,327.5C 396.158,327.781 390.325,328.114 384.5,328.5C 394.665,324.827 404.998,324.661 415.5,328C 420.678,331.51 424.011,336.344 425.5,342.5 Z"/></g>
<g><path style="opacity:0.863" fill="#a38662" d="M 137.5,336.5 C 119.166,334.759 100.832,333.092 82.5,331.5C 83.7725,330.566 85.2725,329.899 87,329.5C 103.973,331.808 120.806,334.141 137.5,336.5 Z"/></g>
<g><path style="opacity:1" fill="#f7b10a" d="M 354.5,333.5 C 354.833,333.5 355.167,333.5 355.5,333.5C 358.833,333.5 362.167,333.5 365.5,333.5C 366.848,334.186 368.015,335.186 369,336.5C 370.231,335.892 371.564,335.559 373,335.5C 383.058,337.474 392.891,340.307 402.5,344C 411.304,348.408 414.471,355.242 412,364.5C 407.625,369.387 403.125,374.22 398.5,379C 393.612,381.294 388.945,383.961 384.5,387C 379.375,388.816 374.375,390.816 369.5,393C 367.35,394.192 366.683,395.692 367.5,397.5C 357.959,397.896 348.626,398.896 339.5,400.5C 334.105,400.267 328.772,400.6 323.5,401.5C 317.137,401.407 310.804,401.74 304.5,402.5C 308.116,400.412 312.116,398.912 316.5,398C 317.667,397.5 318.5,396.667 319,395.5C 323.375,397.01 327.708,396.343 332,393.5C 332.333,393.833 332.667,394.167 333,394.5C 334.351,392.981 335.851,391.648 337.5,390.5C 337.489,391.441 337.989,392.108 339,392.5C 340.742,390.755 342.742,389.421 345,388.5C 349.522,390.729 351.688,389.396 351.5,384.5C 355.695,384.24 359.529,383.573 363,382.5C 363.374,381.584 363.874,380.75 364.5,380C 362.833,379.667 361.167,379.333 359.5,379C 361.597,377.39 363.93,376.223 366.5,375.5C 365.695,373.528 364.361,372.028 362.5,371C 363.756,370.583 364.423,369.75 364.5,368.5C 365.943,369.335 366.943,370.668 367.5,372.5C 368.736,373.246 370.07,373.579 371.5,373.5C 370.925,369.477 370.259,365.477 369.5,361.5C 369.5,360.167 369.5,358.833 369.5,357.5C 371.099,357.768 372.432,357.434 373.5,356.5C 375.764,355.781 378.097,355.448 380.5,355.5C 380.723,358.114 379.556,359.781 377,360.5C 377.197,364.699 379.53,367.032 384,367.5C 385.984,367.259 387.817,366.592 389.5,365.5C 390.791,367.097 392.291,368.43 394,369.5C 394.5,369.333 395,369.167 395.5,369C 394.682,363.471 393.682,357.971 392.5,352.5C 393.873,352.657 395.207,352.49 396.5,352C 393.028,350.42 389.362,350.087 385.5,351C 372.408,353.616 359.241,355.782 346,357.5C 343.966,356.056 343.132,354.056 343.5,351.5C 345.143,351.48 346.476,352.147 347.5,353.5C 348.282,351.671 347.616,350.171 345.5,349C 343.505,348.387 341.838,348.887 340.5,350.5C 339.972,349.279 339.305,348.113 338.5,347C 329.173,346.245 319.84,345.578 310.5,345C 309.234,344.691 308.067,344.191 307,343.5C 305.667,346.167 304.333,346.167 303,343.5C 300.733,344.289 298.4,344.956 296,345.5C 295.05,344.978 294.216,344.311 293.5,343.5C 292.304,343.846 292.304,344.346 293.5,345C 279.517,345.353 265.684,346.853 252,349.5C 250.538,349.006 249.038,348.673 247.5,348.5C 242.777,350.628 237.944,351.294 233,350.5C 231.629,351.581 230.129,352.415 228.5,353C 222.972,353.711 217.639,354.211 212.5,354.5C 212.5,355.5 212.5,356.5 212.5,357.5C 203.84,359.165 195.173,360.831 186.5,362.5C 186.494,366.102 184.66,368.102 181,368.5C 180.536,367.906 180.369,367.239 180.5,366.5C 184.223,365.476 184.057,364.143 180,362.5C 179.685,360.414 179.185,358.414 178.5,356.5C 178.626,353.405 180.293,351.572 183.5,351C 193.13,349.473 202.796,347.473 212.5,345C 234.167,344.667 255.833,344.333 277.5,344C 280.365,343.817 283.031,343.317 285.5,342.5C 288.059,342.802 290.393,342.468 292.5,341.5C 292.833,341.5 293.167,341.5 293.5,341.5C 314.234,340.866 334.567,338.199 354.5,333.5 Z"/></g>
<g><path style="opacity:1" fill="#f49e10" d="M 82.5,331.5 C 100.832,333.092 119.166,334.759 137.5,336.5C 137.833,336.5 138.167,336.5 138.5,336.5C 144.953,338.042 151.62,339.042 158.5,339.5C 147.078,341.577 135.745,344.411 124.5,348C 118.684,350.356 113.017,352.856 107.5,355.5C 104.615,355.194 101.948,355.527 99.5,356.5C 87.1206,362.39 74.6206,368.056 62,373.5C 51.521,379.428 41.8543,386.428 33,394.5C 25.9429,401.005 23.2762,409.005 25,418.5C 25.4652,419.931 26.2986,421.097 27.5,422C 26.376,422.249 25.376,422.749 24.5,423.5C 27.2167,423.974 29.5501,424.974 31.5,426.5C 29.8333,426.5 28.1667,426.5 26.5,426.5C 24.7354,425.539 22.7354,425.205 20.5,425.5C 14.8352,423.238 8.83524,422.238 2.5,422.5C 2.19607,421.85 1.86273,421.183 1.5,420.5C 3.05768,418.009 4.05768,415.343 4.5,412.5C 10.0904,404.991 14.4237,396.658 17.5,387.5C 18.9774,385.193 20.9774,383.36 23.5,382C 23.0426,381.586 22.7093,381.086 22.5,380.5C 24.1733,378.477 24.8399,376.144 24.5,373.5C 25.3257,370.515 26.659,367.849 28.5,365.5C 30.0481,365.179 30.7148,364.179 30.5,362.5C 41.1719,362.667 51.8385,362.5 62.5,362C 64.0163,360.103 64.683,357.936 64.5,355.5C 67.7512,352.676 69.7512,349.009 70.5,344.5C 72.8026,338.533 76.8026,334.2 82.5,331.5 Z"/></g>
<g><path style="opacity:0.475" fill="#9b825b" d="M 138.5,336.5 C 150.685,337.423 162.685,338.756 174.5,340.5C 169.138,340.528 163.805,340.194 158.5,339.5C 151.62,339.042 144.953,338.042 138.5,336.5 Z"/></g>
<g><path style="opacity:0.89" fill="#a08245" d="M 354.5,333.5 C 334.567,338.199 314.234,340.866 293.5,341.5C 313.74,339.187 334.073,336.521 354.5,333.5 Z"/></g>
<g><path style="opacity:0.714" fill="#9e8349" d="M 292.5,341.5 C 290.393,342.468 288.059,342.802 285.5,342.5C 277.842,342.986 270.175,343.32 262.5,343.5C 262.5,343.167 262.5,342.833 262.5,342.5C 272.484,341.787 282.484,341.453 292.5,341.5 Z"/></g>
<g><path style="opacity:1" fill="#f1a711" d="M 158.5,339.5 C 163.805,340.194 169.138,340.528 174.5,340.5C 182.505,340.731 190.505,341.065 198.5,341.5C 201.305,342.319 204.305,342.819 207.5,343C 225.83,343.5 244.164,343.667 262.5,343.5C 270.175,343.32 277.842,342.986 285.5,342.5C 283.031,343.317 280.365,343.817 277.5,344C 255.833,344.333 234.167,344.667 212.5,345C 202.796,347.473 193.13,349.473 183.5,351C 180.293,351.572 178.626,353.405 178.5,356.5C 176.947,354.615 174.947,353.615 172.5,353.5C 172.22,356.388 173.553,357.888 176.5,358C 177.293,359.085 177.96,360.252 178.5,361.5C 175.667,361.833 172.833,362.167 170,362.5C 148.9,361.242 128.066,358.908 107.5,355.5C 113.017,352.856 118.684,350.356 124.5,348C 135.745,344.411 147.078,341.577 158.5,339.5 Z"/></g>
<g><path style="opacity:1" fill="#ada393" d="M 198.5,341.5 C 209,342.37 219.334,342.37 229.5,341.5C 237.167,341.5 244.833,341.5 252.5,341.5C 255.625,342.479 258.958,342.813 262.5,342.5C 262.5,342.833 262.5,343.167 262.5,343.5C 244.164,343.667 225.83,343.5 207.5,343C 204.305,342.819 201.305,342.319 198.5,341.5 Z"/></g>
<g><path style="opacity:1" fill="#1a1205" d="M 373.5,356.5 C 371.833,356.5 370.167,356.5 368.5,356.5C 368.216,358.415 368.549,360.081 369.5,361.5C 370.259,365.477 370.925,369.477 371.5,373.5C 370.07,373.579 368.736,373.246 367.5,372.5C 366.943,370.668 365.943,369.335 364.5,368.5C 362.833,368.5 361.167,368.5 359.5,368.5C 358.43,371.872 356.597,371.872 354,368.5C 354.29,365.587 354.457,362.587 354.5,359.5C 352.194,359.993 349.861,360.326 347.5,360.5C 348.125,364.994 348.791,369.494 349.5,374C 348.299,376.961 346.966,376.794 345.5,373.5C 344.638,369.547 344.305,365.547 344.5,361.5C 342.5,361.5 340.5,361.5 338.5,361.5C 338.942,365.154 339.276,368.821 339.5,372.5C 336.341,372.519 333.674,371.352 331.5,369C 333.838,367.492 334.838,365.325 334.5,362.5C 331.119,362.46 327.786,362.793 324.5,363.5C 325.167,368.833 325.833,374.167 326.5,379.5C 325.178,379.67 324.011,379.337 323,378.5C 322.178,375.883 321.678,373.216 321.5,370.5C 319.167,370.5 316.833,370.5 314.5,370.5C 313.923,374.08 314.923,377.08 317.5,379.5C 317.167,379.833 316.833,380.167 316.5,380.5C 310.869,377.461 309.536,373.295 312.5,368C 315.482,367.502 318.482,367.335 321.5,367.5C 321.5,366.5 321.5,365.5 321.5,364.5C 315.162,364.767 308.829,365.1 302.5,365.5C 302.791,371.248 302.791,376.915 302.5,382.5C 301.252,381.96 300.085,381.293 299,380.5C 298.501,375.845 298.334,371.179 298.5,366.5C 295.833,366.5 293.167,366.5 290.5,366.5C 290.821,372.026 290.488,377.36 289.5,382.5C 288.85,382.196 288.183,381.863 287.5,381.5C 286.507,376.88 286.173,372.214 286.5,367.5C 284.167,367.5 281.833,367.5 279.5,367.5C 280.321,372.863 280.321,378.197 279.5,383.5C 277.227,382.721 275.394,381.388 274,379.5C 271.88,380.459 269.713,380.626 267.5,380C 265.261,377.956 262.761,376.456 260,375.5C 258.833,375.667 257.667,375.833 256.5,376C 260.063,383.105 258.063,385.105 250.5,382C 247.843,379.844 246.51,377.344 246.5,374.5C 248.489,378.178 251.489,380.178 255.5,380.5C 255.854,377.579 254.854,375.246 252.5,373.5C 257.492,372.668 262.492,372.001 267.5,371.5C 267.5,370.5 267.5,369.5 267.5,368.5C 265.167,368.5 262.833,368.5 260.5,368.5C 253.825,368.666 247.158,368.5 240.5,368C 239.833,367.333 239.167,366.667 238.5,366C 254.342,365.144 270.175,364.31 286,363.5C 286.833,363.167 287.667,362.833 288.5,362.5C 286.694,360.392 284.527,358.726 282,357.5C 281.568,356.4 282.068,355.733 283.5,355.5C 287.382,356.72 289.382,359.386 289.5,363.5C 292.518,363.665 295.518,363.498 298.5,363C 296.173,358.054 297.673,355.221 303,354.5C 307.596,355.382 311.762,357.215 315.5,360C 312.162,359.517 308.828,358.683 305.5,357.5C 302.155,357.511 300.489,359.178 300.5,362.5C 314.54,361.533 328.54,360.199 342.5,358.5C 341.361,355.996 340.694,353.33 340.5,350.5C 341.838,348.887 343.505,348.387 345.5,349C 347.616,350.171 348.282,351.671 347.5,353.5C 346.476,352.147 345.143,351.48 343.5,351.5C 343.132,354.056 343.966,356.056 346,357.5C 359.241,355.782 372.408,353.616 385.5,351C 389.362,350.087 393.028,350.42 396.5,352C 395.207,352.49 393.873,352.657 392.5,352.5C 393.682,357.971 394.682,363.471 395.5,369C 395,369.167 394.5,369.333 394,369.5C 392.291,368.43 390.791,367.097 389.5,365.5C 387.817,366.592 385.984,367.259 384,367.5C 379.53,367.032 377.197,364.699 377,360.5C 379.556,359.781 380.723,358.114 380.5,355.5C 378.097,355.448 375.764,355.781 373.5,356.5 Z"/></g>
<g><path style="opacity:1" fill="#d19c3d" d="M 425.5,343.5 C 428.341,347.849 430.674,352.516 432.5,357.5C 432.5,358.167 432.5,358.833 432.5,359.5C 431.685,358.571 430.852,357.571 430,356.5C 429.667,357.167 429.333,357.833 429,358.5C 427.83,353.469 426.663,348.469 425.5,343.5 Z"/></g>
<g><path style="opacity:1" fill="#b78b50" d="M 70.5,344.5 C 69.7512,349.009 67.7512,352.676 64.5,355.5C 65.7417,351.345 67.7417,347.678 70.5,344.5 Z"/></g>
<g><path style="opacity:1" fill="#e7a912" d="M 382.5,354.5 C 388.674,353.173 390.841,355.506 389,361.5C 386.695,363.93 383.862,364.93 380.5,364.5C 380.5,363.5 380.5,362.5 380.5,361.5C 382.346,361.778 383.68,361.111 384.5,359.5C 383.544,357.925 382.877,356.258 382.5,354.5 Z"/></g>
<g><path style="opacity:1" fill="#f4a50e" d="M 99.5,356.5 C 104.407,358.271 109.407,359.938 114.5,361.5C 102.178,360.494 99.5116,364.994 106.5,375C 107.332,375.688 107.998,375.521 108.5,374.5C 103.304,367.595 104.97,364.595 113.5,365.5C 112.89,369.635 113.723,373.301 116,376.5C 117.234,371.233 118.067,365.9 118.5,360.5C 121.167,360.833 123.833,361.167 126.5,361.5C 126.89,364.466 126.223,367.132 124.5,369.5C 125.193,370.518 125.859,371.518 126.5,372.5C 125.153,371.829 123.986,371.829 123,372.5C 122.365,371.034 121.531,369.7 120.5,368.5C 121.531,367.3 122.365,365.966 123,364.5C 123.249,365.624 123.749,366.624 124.5,367.5C 125.452,365.955 125.785,364.288 125.5,362.5C 123.738,362.643 122.071,362.309 120.5,361.5C 118.208,365.569 118.208,369.569 120.5,373.5C 120.03,376.55 119.197,376.883 118,374.5C 116.321,377.934 113.488,379.767 109.5,380C 102.367,384.311 96.0335,389.478 90.5,395.5C 92.9688,396.168 95.3021,396.835 97.5,397.5C 82.6154,396.328 67.782,394.661 53,392.5C 50.0597,392.94 48.2264,394.607 47.5,397.5C 48.9416,400.777 51.275,403.277 54.5,405C 67.2132,409.525 79.5465,414.858 91.5,421C 92.7101,422.039 93.7101,423.206 94.5,424.5C 94.7804,427.388 93.4471,428.888 90.5,429C 70.762,430.695 51.0953,429.862 31.5,426.5C 29.5501,424.974 27.2167,423.974 24.5,423.5C 25.376,422.749 26.376,422.249 27.5,422C 26.2986,421.097 25.4652,419.931 25,418.5C 23.2762,409.005 25.9429,401.005 33,394.5C 41.8543,386.428 51.521,379.428 62,373.5C 74.6206,368.056 87.1206,362.39 99.5,356.5 Z"/></g>
<g><path style="opacity:1" fill="#775712" d="M 373.5,356.5 C 372.432,357.434 371.099,357.768 369.5,357.5C 369.5,358.833 369.5,360.167 369.5,361.5C 368.549,360.081 368.216,358.415 368.5,356.5C 370.167,356.5 371.833,356.5 373.5,356.5 Z"/></g>
<g><path style="opacity:0.694" fill="#877149" d="M 432.5,357.5 C 444.137,357.808 455.47,358.808 466.5,360.5C 455.248,359.523 443.914,359.189 432.5,359.5C 432.5,358.833 432.5,358.167 432.5,357.5 Z"/></g>
<g><path style="opacity:1" fill="#170f05" d="M 178.5,356.5 C 179.185,358.414 179.685,360.414 180,362.5C 184.057,364.143 184.223,365.476 180.5,366.5C 178.866,371.437 177.866,376.771 177.5,382.5C 176.583,381.873 175.583,381.539 174.5,381.5C 174.5,377.833 174.5,374.167 174.5,370.5C 175.451,369.081 175.784,367.415 175.5,365.5C 172.833,365.5 170.167,365.5 167.5,365.5C 167.5,367.167 167.5,368.833 167.5,370.5C 167.665,373.518 167.498,376.518 167,379.5C 164.989,381.932 163.489,381.432 162.5,378C 162.735,377.127 163.069,376.293 163.5,375.5C 160.335,374.656 157.335,373.823 154.5,373C 153.833,373.667 153.167,374.333 152.5,375C 153.79,377.292 155.457,379.292 157.5,381C 157,381.167 156.5,381.333 156,381.5C 153,377.995 150.167,374.329 147.5,370.5C 148.403,368.38 149.737,368.046 151.5,369.5C 152.466,367.604 152.799,365.604 152.5,363.5C 148.833,363.5 145.167,363.5 141.5,363.5C 141.49,368.915 140.823,374.248 139.5,379.5C 136.907,377.929 135.907,375.596 136.5,372.5C 133.606,372.042 131.106,372.709 129,374.5C 128.005,373.934 127.172,373.267 126.5,372.5C 125.859,371.518 125.193,370.518 124.5,369.5C 126.223,367.132 126.89,364.466 126.5,361.5C 123.833,361.167 121.167,360.833 118.5,360.5C 118.067,365.9 117.234,371.233 116,376.5C 113.723,373.301 112.89,369.635 113.5,365.5C 104.97,364.595 103.304,367.595 108.5,374.5C 107.998,375.521 107.332,375.688 106.5,375C 99.5116,364.994 102.178,360.494 114.5,361.5C 109.407,359.938 104.407,358.271 99.5,356.5C 101.948,355.527 104.615,355.194 107.5,355.5C 128.066,358.908 148.9,361.242 170,362.5C 172.833,362.167 175.667,361.833 178.5,361.5C 177.96,360.252 177.293,359.085 176.5,358C 173.553,357.888 172.22,356.388 172.5,353.5C 174.947,353.615 176.947,354.615 178.5,356.5 Z"/></g>
<g><path style="opacity:0.996" fill="#977442" d="M 64.5,355.5 C 64.683,357.936 64.0163,360.103 62.5,362C 51.8385,362.5 41.1719,362.667 30.5,362.5C 30.7148,364.179 30.0481,365.179 28.5,365.5C 28.5394,364.417 28.8728,363.417 29.5,362.5C 40.1511,361.668 50.8178,361.168 61.5,361C 62.6087,359.124 63.6087,357.291 64.5,355.5 Z"/></g>
<g><path style="opacity:1" fill="#ebae11" d="M 358.5,358.5 C 360.833,358.5 363.167,358.5 365.5,358.5C 365.5,360.833 365.5,363.167 365.5,365.5C 363.167,365.5 360.833,365.5 358.5,365.5C 358.5,363.167 358.5,360.833 358.5,358.5 Z"/></g>
<g><path style="opacity:1" fill="#eea810" d="M 130.5,362.5 C 133.5,362.5 136.5,362.5 139.5,362.5C 139.5,364.833 139.5,367.167 139.5,369.5C 133.11,371.164 130.11,368.831 130.5,362.5 Z"/></g>
<g><path style="opacity:1" fill="#805f11" d="M 159.5,364.5 C 161.167,364.5 162.833,364.5 164.5,364.5C 164.768,366.099 164.434,367.432 163.5,368.5C 163.5,367.5 163.5,366.5 163.5,365.5C 161.901,365.768 160.568,365.434 159.5,364.5 Z"/></g>
<g><path style="opacity:1" fill="#e6a812" d="M 159.5,364.5 C 160.568,365.434 161.901,365.768 163.5,365.5C 163.5,366.5 163.5,367.5 163.5,368.5C 163.5,369.5 163.5,370.5 163.5,371.5C 160.833,371.5 158.167,371.5 155.5,371.5C 155.674,369.139 156.007,366.806 156.5,364.5C 157.5,364.5 158.5,364.5 159.5,364.5 Z"/></g>
<g><path style="opacity:1" fill="#a47919" d="M 174.5,370.5 C 174.5,369.167 174.5,367.833 174.5,366.5C 172.5,366.5 170.5,366.5 168.5,366.5C 168.768,368.099 168.434,369.432 167.5,370.5C 167.5,368.833 167.5,367.167 167.5,365.5C 170.167,365.5 172.833,365.5 175.5,365.5C 175.784,367.415 175.451,369.081 174.5,370.5 Z"/></g>
<g><path style="opacity:1" fill="#f7ba08" d="M 340.5,350.5 C 340.694,353.33 341.361,355.996 342.5,358.5C 328.54,360.199 314.54,361.533 300.5,362.5C 300.489,359.178 302.155,357.511 305.5,357.5C 308.828,358.683 312.162,359.517 315.5,360C 311.762,357.215 307.596,355.382 303,354.5C 297.673,355.221 296.173,358.054 298.5,363C 295.518,363.498 292.518,363.665 289.5,363.5C 289.382,359.386 287.382,356.72 283.5,355.5C 282.068,355.733 281.568,356.4 282,357.5C 284.527,358.726 286.694,360.392 288.5,362.5C 287.667,362.833 286.833,363.167 286,363.5C 270.175,364.31 254.342,365.144 238.5,366C 239.167,366.667 239.833,367.333 240.5,368C 247.158,368.5 253.825,368.666 260.5,368.5C 250.329,369.531 239.996,369.531 229.5,368.5C 228.955,364.828 228.622,365.162 228.5,369.5C 226.833,369.5 225.167,369.5 223.5,369.5C 223.817,373.702 223.483,377.702 222.5,381.5C 222.5,377.167 222.5,372.833 222.5,368.5C 224.199,368.66 225.866,368.494 227.5,368C 227.043,367.586 226.709,367.086 226.5,366.5C 214.845,365.362 203.179,364.862 191.5,365C 192.955,367.016 194.955,367.849 197.5,367.5C 197.5,369.833 197.5,372.167 197.5,374.5C 196.325,374.281 195.325,374.614 194.5,375.5C 195.833,377.5 197.5,379.167 199.5,380.5C 201.868,378.777 204.534,378.11 207.5,378.5C 207.5,379.5 207.5,380.5 207.5,381.5C 200.783,379.363 196.116,381.863 193.5,389C 194.126,389.75 194.626,390.584 195,391.5C 198.531,393.718 202.364,395.385 206.5,396.5C 235.853,399.59 264.353,395.923 292,385.5C 292.893,386.711 293.726,386.711 294.5,385.5C 294,384.5 293.5,383.5 293,382.5C 291.708,383.791 290.542,383.791 289.5,382.5C 290.488,377.36 290.821,372.026 290.5,366.5C 293.167,366.5 295.833,366.5 298.5,366.5C 298.334,371.179 298.501,375.845 299,380.5C 300.085,381.293 301.252,381.96 302.5,382.5C 302.791,376.915 302.791,371.248 302.5,365.5C 308.829,365.1 315.162,364.767 321.5,364.5C 321.5,365.5 321.5,366.5 321.5,367.5C 318.482,367.335 315.482,367.502 312.5,368C 309.536,373.295 310.869,377.461 316.5,380.5C 316.833,380.167 317.167,379.833 317.5,379.5C 314.923,377.08 313.923,374.08 314.5,370.5C 316.833,370.5 319.167,370.5 321.5,370.5C 321.678,373.216 322.178,375.883 323,378.5C 324.011,379.337 325.178,379.67 326.5,379.5C 325.833,374.167 325.167,368.833 324.5,363.5C 327.786,362.793 331.119,362.46 334.5,362.5C 334.838,365.325 333.838,367.492 331.5,369C 333.674,371.352 336.341,372.519 339.5,372.5C 339.276,368.821 338.942,365.154 338.5,361.5C 340.5,361.5 342.5,361.5 344.5,361.5C 344.305,365.547 344.638,369.547 345.5,373.5C 346.966,376.794 348.299,376.961 349.5,374C 348.791,369.494 348.125,364.994 347.5,360.5C 349.861,360.326 352.194,359.993 354.5,359.5C 354.457,362.587 354.29,365.587 354,368.5C 356.597,371.872 358.43,371.872 359.5,368.5C 361.167,368.5 362.833,368.5 364.5,368.5C 364.423,369.75 363.756,370.583 362.5,371C 364.361,372.028 365.695,373.528 366.5,375.5C 363.93,376.223 361.597,377.39 359.5,379C 361.167,379.333 362.833,379.667 364.5,380C 363.874,380.75 363.374,381.584 363,382.5C 359.529,383.573 355.695,384.24 351.5,384.5C 351.688,389.396 349.522,390.729 345,388.5C 342.742,389.421 340.742,390.755 339,392.5C 337.989,392.108 337.489,391.441 337.5,390.5C 335.851,391.648 334.351,392.981 333,394.5C 332.667,394.167 332.333,393.833 332,393.5C 327.708,396.343 323.375,397.01 319,395.5C 318.5,396.667 317.667,397.5 316.5,398C 312.116,398.912 308.116,400.412 304.5,402.5C 269.546,404.959 234.546,405.959 199.5,405.5C 197.833,405.5 196.167,405.5 194.5,405.5C 188.167,404.833 181.833,404.167 175.5,403.5C 171.623,402.511 167.623,401.511 163.5,400.5C 162.5,397.5 161.5,394.5 160.5,391.5C 162.555,387.873 165.055,384.54 168,381.5C 170.081,382.333 172.248,382.333 174.5,381.5C 175.583,381.539 176.583,381.873 177.5,382.5C 177.866,376.771 178.866,371.437 180.5,366.5C 180.369,367.239 180.536,367.906 181,368.5C 184.66,368.102 186.494,366.102 186.5,362.5C 195.173,360.831 203.84,359.165 212.5,357.5C 212.5,356.5 212.5,355.5 212.5,354.5C 217.639,354.211 222.972,353.711 228.5,353C 230.129,352.415 231.629,351.581 233,350.5C 237.944,351.294 242.777,350.628 247.5,348.5C 249.038,348.673 250.538,349.006 252,349.5C 265.684,346.853 279.517,345.353 293.5,345C 292.304,344.346 292.304,343.846 293.5,343.5C 294.216,344.311 295.05,344.978 296,345.5C 298.4,344.956 300.733,344.289 303,343.5C 304.333,346.167 305.667,346.167 307,343.5C 308.067,344.191 309.234,344.691 310.5,345C 319.84,345.578 329.173,346.245 338.5,347C 339.305,348.113 339.972,349.279 340.5,350.5 Z"/></g>
<g><path style="opacity:1" fill="#f9c305" d="M 260.5,368.5 C 262.833,368.5 265.167,368.5 267.5,368.5C 267.5,369.5 267.5,370.5 267.5,371.5C 262.492,372.001 257.492,372.668 252.5,373.5C 254.854,375.246 255.854,377.579 255.5,380.5C 251.489,380.178 248.489,378.178 246.5,374.5C 246.51,377.344 247.843,379.844 250.5,382C 258.063,385.105 260.063,383.105 256.5,376C 257.667,375.833 258.833,375.667 260,375.5C 262.761,376.456 265.261,377.956 267.5,380C 269.713,380.626 271.88,380.459 274,379.5C 275.394,381.388 277.227,382.721 279.5,383.5C 280.321,378.197 280.321,372.863 279.5,367.5C 281.833,367.5 284.167,367.5 286.5,367.5C 286.173,372.214 286.507,376.88 287.5,381.5C 288.183,381.863 288.85,382.196 289.5,382.5C 290.542,383.791 291.708,383.791 293,382.5C 293.5,383.5 294,384.5 294.5,385.5C 293.726,386.711 292.893,386.711 292,385.5C 264.353,395.923 235.853,399.59 206.5,396.5C 202.364,395.385 198.531,393.718 195,391.5C 194.626,390.584 194.126,389.75 193.5,389C 196.116,381.863 200.783,379.363 207.5,381.5C 207.787,383.121 208.787,384.121 210.5,384.5C 211.495,379.208 211.828,373.875 211.5,368.5C 213.833,368.5 216.167,368.5 218.5,368.5C 218.173,373.544 218.506,378.544 219.5,383.5C 221.62,384.872 222.62,384.205 222.5,381.5C 223.483,377.702 223.817,373.702 223.5,369.5C 225.167,369.5 226.833,369.5 228.5,369.5C 228.622,365.162 228.955,364.828 229.5,368.5C 239.996,369.531 250.329,369.531 260.5,368.5 Z"/></g>
<g><path style="opacity:1" fill="#eaba0f" d="M 269.5,367.5 C 271.5,367.5 273.5,367.5 275.5,367.5C 277.005,374.91 274.005,378.244 266.5,377.5C 266.961,375.084 268.294,373.25 270.5,372C 269.852,370.56 269.519,369.06 269.5,367.5 Z"/></g>
<g><path style="opacity:1" fill="#150d03" d="M 222.5,381.5 C 222.62,384.205 221.62,384.872 219.5,383.5C 218.506,378.544 218.173,373.544 218.5,368.5C 216.167,368.5 213.833,368.5 211.5,368.5C 211.828,373.875 211.495,379.208 210.5,384.5C 208.787,384.121 207.787,383.121 207.5,381.5C 207.5,380.5 207.5,379.5 207.5,378.5C 204.534,378.11 201.868,378.777 199.5,380.5C 197.5,379.167 195.833,377.5 194.5,375.5C 195.325,374.614 196.325,374.281 197.5,374.5C 197.5,372.167 197.5,369.833 197.5,367.5C 194.955,367.849 192.955,367.016 191.5,365C 203.179,364.862 214.845,365.362 226.5,366.5C 226.709,367.086 227.043,367.586 227.5,368C 225.866,368.494 224.199,368.66 222.5,368.5C 222.5,372.833 222.5,377.167 222.5,381.5 Z"/></g>
<g><path style="opacity:1" fill="#fabe07" d="M 201.5,368.5 C 203.5,368.5 205.5,368.5 207.5,368.5C 207.5,370.5 207.5,372.5 207.5,374.5C 205.5,374.5 203.5,374.5 201.5,374.5C 201.5,372.5 201.5,370.5 201.5,368.5 Z"/></g>
<g><path style="opacity:1" fill="#785b13" d="M 201.5,368.5 C 203.607,367.532 205.941,367.198 208.5,367.5C 208.5,370.167 208.5,372.833 208.5,375.5C 205.941,375.802 203.607,375.468 201.5,374.5C 203.5,374.5 205.5,374.5 207.5,374.5C 207.5,372.5 207.5,370.5 207.5,368.5C 205.5,368.5 203.5,368.5 201.5,368.5 Z"/></g>
<g><path style="opacity:1" fill="#d09343" d="M 24.5,373.5 C 24.8399,376.144 24.1733,378.477 22.5,380.5C 22.7093,381.086 23.0426,381.586 23.5,382C 20.9774,383.36 18.9774,385.193 17.5,387.5C 18.7986,382.236 21.1319,377.569 24.5,373.5 Z"/></g>
<g><path style="opacity:1" fill="#f7b40a" d="M 126.5,372.5 C 127.172,373.267 128.005,373.934 129,374.5C 131.106,372.709 133.606,372.042 136.5,372.5C 135.907,375.596 136.907,377.929 139.5,379.5C 140.823,374.248 141.49,368.915 141.5,363.5C 145.167,363.5 148.833,363.5 152.5,363.5C 152.799,365.604 152.466,367.604 151.5,369.5C 149.737,368.046 148.403,368.38 147.5,370.5C 150.167,374.329 153,377.995 156,381.5C 156.5,381.333 157,381.167 157.5,381C 155.457,379.292 153.79,377.292 152.5,375C 153.167,374.333 153.833,373.667 154.5,373C 157.335,373.823 160.335,374.656 163.5,375.5C 163.069,376.293 162.735,377.127 162.5,378C 163.489,381.432 164.989,381.932 167,379.5C 167.498,376.518 167.665,373.518 167.5,370.5C 168.434,369.432 168.768,368.099 168.5,366.5C 170.5,366.5 172.5,366.5 174.5,366.5C 174.5,367.833 174.5,369.167 174.5,370.5C 174.5,374.167 174.5,377.833 174.5,381.5C 172.248,382.333 170.081,382.333 168,381.5C 165.055,384.54 162.555,387.873 160.5,391.5C 161.5,394.5 162.5,397.5 163.5,400.5C 167.623,401.511 171.623,402.511 175.5,403.5C 169.833,403.5 164.167,403.5 158.5,403.5C 142.203,401.875 125.869,400.541 109.5,399.5C 105.605,398.775 101.605,398.109 97.5,397.5C 95.3021,396.835 92.9688,396.168 90.5,395.5C 96.0335,389.478 102.367,384.311 109.5,380C 113.488,379.767 116.321,377.934 118,374.5C 119.197,376.883 120.03,376.55 120.5,373.5C 118.208,369.569 118.208,365.569 120.5,361.5C 122.071,362.309 123.738,362.643 125.5,362.5C 125.785,364.288 125.452,365.955 124.5,367.5C 123.749,366.624 123.249,365.624 123,364.5C 122.365,365.966 121.531,367.3 120.5,368.5C 121.531,369.7 122.365,371.034 123,372.5C 123.986,371.829 125.153,371.829 126.5,372.5 Z"/></g>
<g><path style="opacity:1" fill="#f29913" d="M 468.5,364.5 C 472.341,370.849 475.675,377.516 478.5,384.5C 479.114,387.435 480.114,390.268 481.5,393C 480.132,394.873 478.466,396.54 476.5,398C 477.737,398.232 478.737,398.732 479.5,399.5C 473.866,400.619 468.866,403.119 464.5,407C 456.07,408.883 448.07,411.883 440.5,416C 433.485,416.001 427.152,418.001 421.5,422C 416.983,422.263 412.649,423.263 408.5,425C 409.416,425.278 410.082,425.778 410.5,426.5C 407.833,426.167 405.167,425.833 402.5,425.5C 402.167,424.833 401.833,424.167 401.5,423.5C 402.485,419.67 404.819,416.837 408.5,415C 416.925,411.124 425.592,407.791 434.5,405C 438.993,402.921 443.326,400.588 447.5,398C 449.224,394.464 448.557,391.631 445.5,389.5C 444.048,388.698 442.382,388.198 440.5,388C 447.166,384.669 453.499,380.836 459.5,376.5C 462.293,374.221 464.46,371.554 466,368.5C 466.604,370.686 467.77,370.852 469.5,369C 468.62,367.644 468.286,366.144 468.5,364.5 Z"/></g>
<g><path style="opacity:1" fill="#5c5956" d="M 445.5,389.5 C 448.557,391.631 449.224,394.464 447.5,398C 443.326,400.588 438.993,402.921 434.5,405C 425.592,407.791 416.925,411.124 408.5,415C 404.819,416.837 402.485,419.67 401.5,423.5C 396.789,415.083 392.289,406.416 388,397.5C 386.644,396.62 385.144,396.286 383.5,396.5C 403.966,393.628 424.633,391.295 445.5,389.5 Z"/></g>
<g><path style="opacity:1" fill="#5c5956" d="M 97.5,397.5 C 101.605,398.109 105.605,398.775 109.5,399.5C 105.614,407.604 101.447,415.604 97,423.5C 96.3292,424.252 95.4959,424.586 94.5,424.5C 93.7101,423.206 92.7101,422.039 91.5,421C 79.5465,414.858 67.2132,409.525 54.5,405C 51.275,403.277 48.9416,400.777 47.5,397.5C 48.2264,394.607 50.0597,392.94 53,392.5C 67.782,394.661 82.6154,396.328 97.5,397.5 Z"/></g>
<g><path style="opacity:1" fill="#d58f35" d="M 478.5,384.5 C 483.276,391.718 487.276,399.385 490.5,407.5C 488.569,406.741 487.069,405.407 486,403.5C 485.107,404.711 484.274,404.711 483.5,403.5C 485.199,400.426 484.533,398.092 481.5,396.5C 480.824,397.602 480.158,398.602 479.5,399.5C 478.737,398.732 477.737,398.232 476.5,398C 478.466,396.54 480.132,394.873 481.5,393C 480.114,390.268 479.114,387.435 478.5,384.5 Z"/></g>
<g><path style="opacity:1" fill="#e21f25" d="M 381.5,396.5 C 382.167,396.5 382.833,396.5 383.5,396.5C 385.144,396.286 386.644,396.62 388,397.5C 392.289,406.416 396.789,415.083 401.5,423.5C 401.833,424.167 402.167,424.833 402.5,425.5C 404.148,426.927 406.148,427.76 408.5,428C 420.048,428.919 431.381,428.419 442.5,426.5C 443.167,426.5 443.833,426.5 444.5,426.5C 453.901,426.085 463.235,425.085 472.5,423.5C 472.5,449.5 472.5,475.5 472.5,501.5C 322.167,501.5 171.833,501.5 21.5,501.5C 21.5,476.5 21.5,451.5 21.5,426.5C 23.1667,426.5 24.8333,426.5 26.5,426.5C 28.1667,426.5 29.8333,426.5 31.5,426.5C 51.0953,429.862 70.762,430.695 90.5,429C 93.4471,428.888 94.7804,427.388 94.5,424.5C 95.4959,424.586 96.3292,424.252 97,423.5C 101.447,415.604 105.614,407.604 109.5,399.5C 125.869,400.541 142.203,401.875 158.5,403.5C 170.297,405.068 182.297,405.735 194.5,405.5C 196.167,405.5 197.833,405.5 199.5,405.5C 240.929,407.495 282.262,406.162 323.5,401.5C 328.772,400.6 334.105,400.267 339.5,400.5C 353.726,400.024 367.726,398.69 381.5,396.5 Z M 280.5,488.5 C 279.5,488.5 278.5,488.5 277.5,488.5C 278.204,486.656 279.537,486.156 281.5,487C 280.944,487.383 280.611,487.883 280.5,488.5 Z"/></g>
<g><path style="opacity:1" fill="#943e18" d="M 381.5,396.5 C 367.726,398.69 353.726,400.024 339.5,400.5C 348.626,398.896 357.959,397.896 367.5,397.5C 372.13,396.771 376.797,396.437 381.5,396.5 Z"/></g>
<g><path style="opacity:1" fill="#a4341b" d="M 323.5,401.5 C 282.262,406.162 240.929,407.495 199.5,405.5C 234.546,405.959 269.546,404.959 304.5,402.5C 310.804,401.74 317.137,401.407 323.5,401.5 Z"/></g>
<g><path style="opacity:1" fill="#942d1b" d="M 158.5,403.5 C 164.167,403.5 169.833,403.5 175.5,403.5C 181.833,404.167 188.167,404.833 194.5,405.5C 182.297,405.735 170.297,405.068 158.5,403.5 Z"/></g>
<g><path style="opacity:1" fill="#f09015" d="M 490.5,407.5 C 491.674,408.514 492.34,409.847 492.5,411.5C 492.449,413.57 493.115,415.403 494.5,417C 494.167,417.5 493.833,418 493.5,418.5C 487.856,419.607 482.189,420.607 476.5,421.5C 465.637,422.738 454.97,424.405 444.5,426.5C 443.833,426.5 443.167,426.5 442.5,426.5C 431.668,427.45 421.002,427.45 410.5,426.5C 410.082,425.778 409.416,425.278 408.5,425C 412.649,423.263 416.983,422.263 421.5,422C 427.152,418.001 433.485,416.001 440.5,416C 448.07,411.883 456.07,408.883 464.5,407C 468.866,403.119 473.866,400.619 479.5,399.5C 480.158,398.602 480.824,397.602 481.5,396.5C 484.533,398.092 485.199,400.426 483.5,403.5C 484.274,404.711 485.107,404.711 486,403.5C 487.069,405.407 488.569,406.741 490.5,407.5 Z"/></g>
<g><path style="opacity:1" fill="#bc8d47" d="M 17.5,387.5 C 14.4237,396.658 10.0904,404.991 4.5,412.5C 8.07181,403.687 12.4051,395.354 17.5,387.5 Z"/></g>
<g><path style="opacity:0.725" fill="#a77d54" d="M 492.5,411.5 C 493.833,413.167 495.167,414.833 496.5,416.5C 496.5,417.5 496.5,418.5 496.5,419.5C 489.873,420.685 483.206,421.685 476.5,422.5C 476.5,422.167 476.5,421.833 476.5,421.5C 482.189,420.607 487.856,419.607 493.5,418.5C 493.833,418 494.167,417.5 494.5,417C 493.115,415.403 492.449,413.57 492.5,411.5 Z"/></g>
<g><path style="opacity:1" fill="#b28c58" d="M 4.5,412.5 C 4.05768,415.343 3.05768,418.009 1.5,420.5C 1.86273,421.183 2.19607,421.85 2.5,422.5C 1.5,422.5 0.5,422.5 -0.5,422.5C -0.5,421.5 -0.5,420.5 -0.5,419.5C 0.921263,416.991 2.58793,414.657 4.5,412.5 Z"/></g>
<g><path style="opacity:1" fill="#ae8750" d="M 2.5,422.5 C 8.83524,422.238 14.8352,423.238 20.5,425.5C 20.5,425.833 20.5,426.167 20.5,426.5C 14.3882,425.253 8.38823,423.92 2.5,422.5 Z"/></g>
<g><path style="opacity:1" fill="#c04f45" d="M 476.5,421.5 C 476.5,421.833 476.5,422.167 476.5,422.5C 475.5,422.5 474.5,422.5 473.5,422.5C 473.5,448.833 473.5,475.167 473.5,501.5C 473.167,501.5 472.833,501.5 472.5,501.5C 472.5,475.5 472.5,449.5 472.5,423.5C 463.235,425.085 453.901,426.085 444.5,426.5C 454.97,424.405 465.637,422.738 476.5,421.5 Z"/></g>
<g><path style="opacity:0.536" fill="#e26b70" d="M 20.5,425.5 C 22.7354,425.205 24.7354,425.539 26.5,426.5C 24.8333,426.5 23.1667,426.5 21.5,426.5C 21.5,451.5 21.5,476.5 21.5,501.5C 21.1667,501.5 20.8333,501.5 20.5,501.5C 20.5,476.5 20.5,451.5 20.5,426.5C 20.5,426.167 20.5,425.833 20.5,425.5 Z"/></g>
<g><path style="opacity:1" fill="#a82a1c" d="M 402.5,425.5 C 405.167,425.833 407.833,426.167 410.5,426.5C 421.002,427.45 431.668,427.45 442.5,426.5C 431.381,428.419 420.048,428.919 408.5,428C 406.148,427.76 404.148,426.927 402.5,425.5 Z"/></g>
<g><path style="opacity:0.999" fill="#fdf6f6" d="M 236.5,438.5 C 244.005,437.988 251.339,438.822 258.5,441C 263.567,443.635 266.234,447.801 266.5,453.5C 261.507,453.916 256.507,454.249 251.5,454.5C 251.607,452.097 250.607,450.264 248.5,449C 245.833,448.333 243.167,448.333 240.5,449C 237.742,451.402 238.075,453.402 241.5,455C 249.957,456.262 257.79,459.095 265,463.5C 270.344,471.899 269.177,479.399 261.5,486C 252.072,489.802 242.405,490.469 232.5,488C 226.183,484.833 222.849,479.667 222.5,472.5C 227.482,471.947 232.482,471.613 237.5,471.5C 238.82,479.161 243.153,481.661 250.5,479C 253.167,476.333 253.167,473.667 250.5,471C 242.156,469.555 234.49,466.555 227.5,462C 224.216,457.11 223.716,451.944 226,446.5C 228.901,442.975 232.401,440.308 236.5,438.5 Z"/></g>
<g><path style="opacity:1" fill="#fdf7f7" d="M 374.5,438.5 C 381.342,438.039 388.009,438.872 394.5,441C 399.061,443.956 401.728,448.123 402.5,453.5C 397.507,453.916 392.507,454.249 387.5,454.5C 386.959,450.13 384.459,448.13 380,448.5C 375.066,447.756 373.566,449.589 375.5,454C 382.151,455.994 388.818,457.994 395.5,460C 404.063,465.633 405.897,473.133 401,482.5C 395.286,487.905 388.453,490.238 380.5,489.5C 367.407,490.981 360.074,485.314 358.5,472.5C 363.493,472.084 368.493,471.751 373.5,471.5C 374.454,479.648 378.788,482.148 386.5,479C 389.167,476.333 389.167,473.667 386.5,471C 377.776,469.883 369.943,466.716 363,461.5C 357.718,449.281 361.551,441.614 374.5,438.5 Z"/></g>
<g><path style="opacity:1" fill="#fdfbfb" d="M 68.5,439.5 C 79.505,439.333 90.505,439.5 101.5,440C 112.386,442.941 115.219,449.441 110,459.5C 108.414,460.376 106.914,461.376 105.5,462.5C 113.627,465.421 116.461,471.088 114,479.5C 111.083,486.213 105.917,489.213 98.5,488.5C 88.5,488.5 78.5,488.5 68.5,488.5C 68.5,472.167 68.5,455.833 68.5,439.5 Z"/></g>
<g><path style="opacity:1" fill="#fdfafa" d="M 148.5,439.5 C 158.506,439.334 168.506,439.5 178.5,440C 190.212,443.909 195.546,452.076 194.5,464.5C 195.289,479.002 188.622,487.002 174.5,488.5C 165.833,488.5 157.167,488.5 148.5,488.5C 148.5,472.167 148.5,455.833 148.5,439.5 Z"/></g>
<g><path style="opacity:1" fill="#fdfafa" d="M 315.5,470.5 C 314.51,476.31 314.177,482.31 314.5,488.5C 309.5,488.5 304.5,488.5 299.5,488.5C 299.5,472.167 299.5,455.833 299.5,439.5C 309.839,439.334 320.172,439.5 330.5,440C 338.083,441.584 342.083,446.25 342.5,454C 342.591,462.511 338.591,467.845 330.5,470C 325.511,470.499 320.511,470.666 315.5,470.5 Z"/></g>
<g><path style="opacity:1" fill="#e99fa2" d="M 148.5,439.5 C 148.5,455.833 148.5,472.167 148.5,488.5C 157.167,488.5 165.833,488.5 174.5,488.5C 165.682,489.493 156.682,489.827 147.5,489.5C 147.17,472.658 147.503,455.992 148.5,439.5 Z"/></g>
<g><path style="opacity:1" fill="#e2292b" d="M 94.5,450.5 C 96.7224,450.559 97.7224,451.725 97.5,454C 97.3829,456.616 96.0496,458.116 93.5,458.5C 90.5,458.5 87.5,458.5 84.5,458.5C 84.5,455.833 84.5,453.167 84.5,450.5C 87.8333,450.5 91.1667,450.5 94.5,450.5 Z"/></g>
<g><path style="opacity:1" fill="#e1292c" d="M 315.5,449.5 C 318.941,449.301 322.274,449.801 325.5,451C 328.611,454.889 327.944,457.889 323.5,460C 320.854,460.497 318.187,460.664 315.5,460.5C 315.5,456.833 315.5,453.167 315.5,449.5 Z"/></g>
<g><path style="opacity:1" fill="#df7478" d="M 94.5,450.5 C 91.1667,450.5 87.8333,450.5 84.5,450.5C 84.5,453.167 84.5,455.833 84.5,458.5C 87.5,458.5 90.5,458.5 93.5,458.5C 90.3752,459.479 87.0419,459.813 83.5,459.5C 83.5,456.167 83.5,452.833 83.5,449.5C 87.3714,449.185 91.0381,449.518 94.5,450.5 Z"/></g>
<g><path style="opacity:1" fill="#e12429" d="M 163.5,450.5 C 173.979,449.056 178.979,453.556 178.5,464C 179.71,475.288 174.71,479.788 163.5,477.5C 163.5,468.5 163.5,459.5 163.5,450.5 Z"/></g>
<g><path style="opacity:1" fill="#de3132" d="M 83.5,468.5 C 87.8461,468.334 92.1794,468.501 96.5,469C 100.027,471.303 100.36,473.97 97.5,477C 92.9342,478.309 88.2675,478.809 83.5,478.5C 83.5,475.167 83.5,471.833 83.5,468.5 Z"/></g>
<g><path style="opacity:1" fill="#fcf3f3" d="M 200.5,475.5 C 205.5,475.5 210.5,475.5 215.5,475.5C 215.5,480.167 215.5,484.833 215.5,489.5C 210.5,489.5 205.5,489.5 200.5,489.5C 200.5,484.833 200.5,480.167 200.5,475.5 Z"/></g>
<g><path style="opacity:1" fill="#fefdfd" d="M 425.5,475.5 C 425.5,479.833 425.5,484.167 425.5,488.5C 420.833,488.5 416.167,488.5 411.5,488.5C 411.5,484.167 411.5,479.833 411.5,475.5C 416.167,475.5 420.833,475.5 425.5,475.5 Z"/></g>
<g><path style="opacity:1" fill="#fefcfc" d="M 123.5,475.5 C 128.5,475.5 133.5,475.5 138.5,475.5C 138.5,479.833 138.5,484.167 138.5,488.5C 133.5,488.5 128.5,488.5 123.5,488.5C 123.5,484.167 123.5,479.833 123.5,475.5 Z"/></g>
<g><path style="opacity:1" fill="#fdf5f5" d="M 336.5,475.5 C 341.5,475.5 346.5,475.5 351.5,475.5C 351.5,480.167 351.5,484.833 351.5,489.5C 346.5,489.5 341.5,489.5 336.5,489.5C 336.5,484.833 336.5,480.167 336.5,475.5 Z"/></g>
<g><path style="opacity:1" fill="#e3888b" d="M 68.5,439.5 C 68.5,455.833 68.5,472.167 68.5,488.5C 78.5,488.5 88.5,488.5 98.5,488.5C 88.3468,489.494 78.0135,489.828 67.5,489.5C 67.1702,472.658 67.5035,455.992 68.5,439.5 Z"/></g>
<g><path style="opacity:1" fill="#e38385" d="M 123.5,475.5 C 123.5,479.833 123.5,484.167 123.5,488.5C 128.5,488.5 133.5,488.5 138.5,488.5C 133.36,489.488 128.026,489.821 122.5,489.5C 122.181,484.637 122.514,479.97 123.5,475.5 Z"/></g>
<g><path style="opacity:0.826" fill="#e28083" d="M 275.5,475.5 C 280.305,474.513 285.305,474.179 290.5,474.5C 290.5,479.5 290.5,484.5 290.5,489.5C 285.167,489.5 279.833,489.5 274.5,489.5C 274.181,484.637 274.514,479.97 275.5,475.5 Z M 280.5,488.5 C 279.5,488.5 278.5,488.5 277.5,488.5C 278.204,486.656 279.537,486.156 281.5,487C 280.944,487.383 280.611,487.883 280.5,488.5 Z"/></g>
<g><path style="opacity:0.823" fill="#fefdfd" d="M 275.5,475.5 C 280.167,475.5 284.833,475.5 289.5,475.5C 289.5,479.833 289.5,484.167 289.5,488.5C 286.5,488.5 283.5,488.5 280.5,488.5C 280.611,487.883 280.944,487.383 281.5,487C 279.537,486.156 278.204,486.656 277.5,488.5C 275.57,484.627 274.903,480.294 275.5,475.5 Z M 280.5,488.5 C 279.5,488.5 278.5,488.5 277.5,488.5C 278.204,486.656 279.537,486.156 281.5,487C 280.944,487.383 280.611,487.883 280.5,488.5 Z"/></g>
<g><path style="opacity:1" fill="#e48f91" d="M 315.5,470.5 C 315.5,476.833 315.5,483.167 315.5,489.5C 309.974,489.821 304.64,489.488 299.5,488.5C 304.5,488.5 309.5,488.5 314.5,488.5C 314.177,482.31 314.51,476.31 315.5,470.5 Z"/></g>
<g><path style="opacity:1" fill="#e18689" d="M 425.5,475.5 C 426.486,479.97 426.819,484.637 426.5,489.5C 421.305,489.821 416.305,489.487 411.5,488.5C 416.167,488.5 420.833,488.5 425.5,488.5C 425.5,484.167 425.5,479.833 425.5,475.5 Z"/></g>
</svg>
